<?xml version="1.0" encoding="utf-8"?>
<!-- Generator: Adobe Illustrator 19.0.0, SVG Export Plug-In . SVG Version: 6.00 Build 0)  -->
<svg version="1.1"
	 id="svg7564" xmlns:rdf="http://www.w3.org/1999/02/22-rdf-syntax-ns#" xmlns:cc="http://creativecommons.org/ns#" xmlns:dc="http://purl.org/dc/elements/1.1/" sodipodi:docname="New document 4" inkscape:version="0.48.1 " xmlns:svg="http://www.w3.org/2000/svg" xmlns:sodipodi="http://sodipodi.sourceforge.net/DTD/sodipodi-0.dtd" xmlns:inkscape="http://www.inkscape.org/namespaces/inkscape"
	 xmlns="http://www.w3.org/2000/svg" xmlns:xlink="http://www.w3.org/1999/xlink" x="0px" y="0px" viewBox="-416 222.6 128 128"
	 style="enable-background:new -416 222.6 128 128;" xml:space="preserve">
<style type="text/css">
	.st0{opacity:0.4;fill:url(#rect2801_1_);enable-background:new    ;}
	.st1{opacity:0.4;fill:url(#rect3696_1_);enable-background:new    ;}
	.st2{opacity:0.4;fill:url(#rect3700_1_);enable-background:new    ;}
	.st3{fill:url(#rect6994_1_);}
	.st4{fill:none;stroke:url(#rect7002_1_);}
	.st5{fill:none;stroke:url(#rect6998_1_);stroke-width:1;}
	.st6{opacity:0.6;}
	.st7{opacity:0.5;fill:#B9B9B9;enable-background:new    ;}
	.st8{fill:#66C4B6;}
	.st9{fill:#EFA143;}
	.st10{fill:#4E9386;}
	.st11{fill:#211D1F;}
	.st12{fill:#16090D;}
</style>
<sodipodi:namedview  id="base" inkscape:window-maximized="1" inkscape:pageopacity="0.0" inkscape:window-width="1360" inkscape:current-layer="layer1" inkscape:document-units="px" inkscape:window-x="-8" inkscape:pageshadow="2" inkscape:window-height="706" inkscape:window-y="-8" showgrid="false" inkscape:cy="20.874172" inkscape:cx="69.25" inkscape:zoom="1" borderopacity="1.0" bordercolor="#666666" pagecolor="#ffffff">
	<inkscape:grid  type="xygrid" id="grid7756" snapvisiblegridlinesonly="true" enabled="true" visible="true" empspacing="12">
		</inkscape:grid>
</sodipodi:namedview>
<g id="layer1" transform="translate(0,-924.36218)" inkscape:label="Layer 1" inkscape:groupmode="layer">
	<g id="g7796">
		
			<radialGradient id="rect2801_1_" cx="-760.2119" cy="1334.2029" r="2.6335" gradientTransform="matrix(6.4121 0 0 -1.8451 4567.0122 3722.5869)" gradientUnits="userSpaceOnUse">
			<stop  offset="0" style="stop-color:#181818"/>
			<stop  offset="1" style="stop-color:#181818;stop-opacity:0"/>
		</radialGradient>
		<rect id="rect2801" x="-307.5" y="1256" class="st0" width="16.9" height="9.7"/>
		
			<radialGradient id="rect3696_1_" cx="-889.0826" cy="1551.5215" r="2.6335" gradientTransform="matrix(-6.4121 0 0 1.8451 -6099.0122 -1601.778)" gradientUnits="userSpaceOnUse">
			<stop  offset="0" style="stop-color:#181818"/>
			<stop  offset="1" style="stop-color:#181818;stop-opacity:0"/>
		</radialGradient>
		<rect id="rect3696" x="-415" y="1256" class="st1" width="16.9" height="9.7"/>
		
			<linearGradient id="rect3700_1_" gradientUnits="userSpaceOnUse" x1="-671.4807" y1="1287.1646" x2="-671.4807" y2="1293.9965" gradientTransform="matrix(3.0714 0 0 -1.4286 1709.5717 3104.5938)">
			<stop  offset="0" style="stop-color:#181818;stop-opacity:0"/>
			<stop  offset="0.5" style="stop-color:#181818"/>
			<stop  offset="1" style="stop-color:#181818;stop-opacity:0"/>
		</linearGradient>
		<rect id="rect3700" x="-398.1" y="1256" class="st2" width="90.6" height="9.7"/>
	</g>
	
		<linearGradient id="rect6994_1_" gradientUnits="userSpaceOnUse" x1="-739.3655" y1="1593.8192" x2="-703.9829" y2="1593.8192" gradientTransform="matrix(0 2.8022 3.0267 0 -5176.856 3234.5598)">
		<stop  offset="0" style="stop-color:#F4F4F4"/>
		<stop  offset="1" style="stop-color:#DBDBDB"/>
	</linearGradient>
	<path id="rect6994" class="st3" d="M-299.1,1165.1v94.3c0,1.3-1.2,2.4-2.6,2.4h-102.2c-1.5,0-2.6-1.1-2.6-2.4v-94.3
		c0-1.3,1.2-2.4,2.6-2.4h102.2C-300.3,1162.7-299.1,1163.8-299.1,1165.1z"/>
	
		<linearGradient id="rect7002_1_" gradientUnits="userSpaceOnUse" x1="-701.9897" y1="1708.5371" x2="-646.5729" y2="1708.5371" gradientTransform="matrix(0 1.7414 2.1957 0 -4104.1865 2386.4658)">
		<stop  offset="0" style="stop-color:#FFFFFF"/>
		<stop  offset="1.785714e-002" style="stop-color:#FFFFFF;stop-opacity:0.2353"/>
		<stop  offset="0.9825" style="stop-color:#FFFFFF;stop-opacity:0.1569"/>
		<stop  offset="1" style="stop-color:#FFFFFF;stop-opacity:0.3922"/>
	</linearGradient>
	<path id="rect7002" class="st4" d="M-299.6,1165.1v94.3c0,1.1-0.9,1.9-2.1,1.9h-102.2c-1.2,0-2.1-0.9-2.1-1.9v-94.3
		c0-1.1,0.9-1.9,2.1-1.9h102.2C-300.6,1163.2-299.6,1164.1-299.6,1165.1z"/>
	
		<linearGradient id="rect6998_1_" gradientUnits="userSpaceOnUse" x1="-951.967" y1="1704.8832" x2="-894.5881" y2="1704.8832" gradientTransform="matrix(0 -1.7759 2.2391 0 -4170.2896 -427.3275)">
		<stop  offset="0" style="stop-color:#000000;stop-opacity:0.3178"/>
		<stop  offset="1" style="stop-color:#000000;stop-opacity:0.2403"/>
	</linearGradient>
	<path id="rect6998" class="st5" d="M-298.6,1259.4v-94.3c0-1.6-1.4-2.9-3.2-2.9h-102.2c-1.7,0-3.2,1.3-3.2,2.9v94.3
		c0,1.6,1.4,2.9,3.2,2.9h102.2C-300,1262.3-298.6,1261-298.6,1259.4z"/>
	<g id="g8367" class="st6">
		<rect id="rect15710" x="-406.6" y="1182.2" class="st7" width="107.5" height="1"/>
		<rect id="rect15712" x="-406.6" y="1202.6" class="st7" width="107.5" height="1"/>
		<rect id="rect16848" x="-406.6" y="1223" class="st7" width="107.5" height="1"/>
		<rect id="rect7153" x="-406.6" y="1243.4" class="st7" width="107.5" height="1"/>
	</g>
</g>
<g>
	<path class="st8" d="M-336,273.2h-58.6c-0.6,0-1.1,0.2-1.4,0.6c-0.4,0.4-0.6,0.9-0.5,1.5c1.5,20.1,8.8,37.8,19.8,47.3
		c0.4,0.3,0.8,0.5,1.3,0.5h34.1c0.5,0,0.9-0.1,1.3-0.5c10.9-9.6,18.3-27.3,19.8-47.3c0-0.6-0.1-1.1-0.5-1.5
		c-0.4-0.4-0.9-0.6-1.4-0.6h-8.6"/>
	<g>
		<path class="st9" d="M-368.7,330h34.9c1.9,0,3.5-1.5,3.5-3.5c0-1.9-1.5-3.5-3.5-3.5h-49.3c-1.9,0-3.5,1.5-3.5,3.5
			c0,1.9,1.5,3.5,3.5,3.5h9.4"/>
		<path class="st9" d="M-321,281.2c-0.3,2.4-0.7,4.8-1.2,7.1c5.3,0.5,9.4,4.9,9.4,10.4c0,5.7-4.6,10.4-10.4,10.4
			c-2.1,0-4-0.6-5.6-1.6c-1.1,2.2-2.3,4.3-3.6,6.2c2.7,1.7,5.8,2.6,9.2,2.6c9.7,0,17.6-7.9,17.6-17.6
			C-305.6,289.7-312.4,282.3-321,281.2z"/>
	</g>
	<path class="st10" d="M-370.7,321.5c-10.8-9.5-18.7-22.5-20.6-46.7c0-0.1,0-0.2,0-0.3h-1.9c-0.5,0-1,0.2-1.3,0.6s-0.5,0.9-0.5,1.4
		c1.4,19,8.4,35.7,18.7,44.7c0.3,0.3,0.8,0.4,1.2,0.4h4.7C-370.6,321.6-370.7,321.5-370.7,321.5z"/>
	<g>
		<path class="st11" d="M-319.4,280c0.2-1.5,0.3-3.1,0.4-4.6c0.1-1-0.3-1.9-0.9-2.6c-0.7-0.7-1.5-1.1-2.5-1.1h-8.6
			c-0.8,0-1.5,0.7-1.5,1.5s0.7,1.5,1.5,1.5h8.6c0.1,0,0.3,0,0.3,0.1c0.1,0.1,0.1,0.2,0.1,0.4c-0.1,2-0.4,3.9-0.6,5.8c0,0,0,0,0,0
			c-0.3,2.4-0.7,4.7-1.2,7c0,0,0,0,0,0c-1.4,6.8-3.6,13.1-6.4,18.6c0,0,0,0.1,0,0.1c-1.1,2.1-2.2,4.2-3.5,6c0,0,0,0.1-0.1,0.1
			c-2.2,3.3-4.7,6.2-7.4,8.6c-0.1,0.1-0.2,0.1-0.3,0.1h-34.1c-0.1,0-0.2,0-0.3-0.1c-10.6-9.3-17.8-26.7-19.2-46.3
			c0-0.1,0-0.3,0.1-0.4c0.1-0.1,0.2-0.1,0.3-0.1h58.6c0.8,0,1.5-0.7,1.5-1.5s-0.7-1.5-1.5-1.5h-58.6c-1,0-1.8,0.4-2.5,1.1
			c-0.7,0.7-1,1.6-0.9,2.6c1.4,19.1,8.1,36.1,18.1,46.2h-3.1c-2.7,0-4.9,2.2-4.9,4.9c0,2.7,2.2,4.9,4.9,4.9h9.4
			c0.8,0,1.5-0.7,1.5-1.5s-0.7-1.5-1.5-1.5h-9.4c-1.1,0-2-0.9-2-2c0-1.1,0.9-2,2-2h7.6h34h7.6c1.1,0,2,0.9,2,2c0,1.1-0.9,2-2,2h-35
			c-0.8,0-1.5,0.7-1.5,1.5s0.7,1.5,1.5,1.5h34.9c2.7,0,4.9-2.2,4.9-4.9c0-2.7-2.2-4.9-4.9-4.9h-3.1c1.8-1.8,3.4-3.8,5-6
			c2.7,1.4,5.7,2.1,8.7,2.1c10.5,0,19.1-8.6,19.1-19.1C-304.2,289.6-310.6,281.8-319.4,280z M-321.1,290c3.9,1,6.8,4.5,6.8,8.7
			c0,4.9-4,8.9-8.9,8.9c-1.3,0-2.5-0.3-3.6-0.8C-324.4,301.7-322.5,296.1-321.1,290z M-323.2,314.8c-2.5,0-4.9-0.6-7.1-1.7
			c0,0,0-0.1,0-0.1c0-0.1,0.1-0.2,0.2-0.3c0.2-0.4,0.4-0.7,0.6-1c0,0,0,0,0,0c0.4-0.7,0.8-1.4,1.2-2.1c1.5,0.7,3.2,1.1,5,1.1
			c6.5,0,11.9-5.3,11.9-11.9c0-3-1.1-5.8-3.1-8c-1.6-1.8-3.7-3-6-3.5c0,0,0,0,0,0c0.3-1.4,0.5-2.7,0.7-4.1
			c7.3,1.6,12.6,8.1,12.6,15.7C-307.1,307.5-314.4,314.8-323.2,314.8z"/>
		<path class="st12" d="M-359,255.1c-2.1,1.9-3.2,4.1-3.2,6.4c0,3.8,3.1,6.5,3.2,6.6c0.3,0.3,0.6,0.4,1,0.4c0.4,0,0.8-0.1,1.1-0.5
			c0.6-0.6,0.5-1.5-0.1-2.1c0,0-2.2-1.9-2.2-4.4c0-1.4,0.7-2.9,2.2-4.2c2.1-2,3.2-4.1,3.2-6.5c0-3.8-3.1-6.5-3.2-6.6
			c-0.6-0.6-1.5-0.5-2.1,0.1s-0.5,1.5,0.1,2.1c0,0,2.1,1.9,2.2,4.4C-356.7,252.3-357.5,253.8-359,255.1z"/>
		<path class="st12" d="M-349,258.6c-1.5,1.4-2.4,3-2.3,4.7c0,2.7,2.1,4.6,2.4,4.8c0.3,0.3,0.6,0.4,1,0.4c0.4,0,0.8-0.1,1.1-0.5
			c0.6-0.6,0.5-1.5-0.1-2.1c0,0-1.3-1.2-1.3-2.6c0-0.8,0.4-1.7,1.3-2.5c1.5-1.4,2.4-3,2.3-4.7c0-2.7-2.1-4.6-2.4-4.8
			c-0.6-0.6-1.5-0.5-2.1,0.1c-0.6,0.6-0.5,1.5,0.1,2.1c0,0,1.3,1.2,1.3,2.6C-347.7,256.9-348.1,257.8-349,258.6z"/>
		<path class="st12" d="M-370.5,258.6c-1.5,1.4-2.4,3-2.3,4.7c0,2.7,2.1,4.6,2.4,4.8c0.3,0.3,0.6,0.4,1,0.4c0.4,0,0.8-0.1,1.1-0.5
			c0.6-0.6,0.5-1.5-0.1-2.1c0,0-1.3-1.2-1.3-2.6c0-0.8,0.4-1.7,1.3-2.5c1.5-1.4,2.4-3,2.3-4.7c0-2.7-2.1-4.6-2.4-4.8
			c-0.6-0.6-1.5-0.5-2.1,0.1c-0.6,0.6-0.5,1.5,0.1,2.1c0,0,1.3,1.2,1.3,2.6C-369.2,256.9-369.6,257.8-370.5,258.6z"/>
	</g>
</g>
</svg>
