<?xml version="1.0" encoding="utf-8"?>
<!-- Generator: Adobe Illustrator 19.0.0, SVG Export Plug-In . SVG Version: 6.00 Build 0)  -->
<svg version="1.1"
	 id="svg7564" xmlns:rdf="http://www.w3.org/1999/02/22-rdf-syntax-ns#" xmlns:cc="http://creativecommons.org/ns#" xmlns:dc="http://purl.org/dc/elements/1.1/" sodipodi:docname="New document 4" inkscape:version="0.48.1 " xmlns:svg="http://www.w3.org/2000/svg" xmlns:sodipodi="http://sodipodi.sourceforge.net/DTD/sodipodi-0.dtd" xmlns:inkscape="http://www.inkscape.org/namespaces/inkscape"
	 xmlns="http://www.w3.org/2000/svg" xmlns:xlink="http://www.w3.org/1999/xlink" x="0px" y="0px" viewBox="-384 254.6 64 64"
	 style="enable-background:new -384 254.6 64 64;" xml:space="preserve">
<style type="text/css">
	.st0{opacity:0.4;fill:url(#rect2801_1_);enable-background:new    ;}
	.st1{opacity:0.4;fill:url(#rect3696_1_);enable-background:new    ;}
	.st2{opacity:0.4;fill:url(#rect3700_1_);enable-background:new    ;}
	.st3{fill:url(#rect6994_1_);}
	.st4{fill:none;stroke:url(#rect7002_1_);}
	.st5{fill:none;stroke:url(#rect6998_1_);stroke-width:1;}
	.st6{opacity:0.6;}
	.st7{opacity:0.5;fill:#B9B9B9;enable-background:new    ;}
	.st8{fill:#66C4B6;}
	.st9{fill:#EFA143;}
	.st10{fill:#4E9386;}
	.st11{fill:#211D1F;}
	.st12{fill:#16090D;}
</style>
<sodipodi:namedview  id="base" inkscape:window-maximized="1" inkscape:pageopacity="0.0" inkscape:window-width="1360" inkscape:current-layer="layer1" inkscape:document-units="px" inkscape:window-x="-8" inkscape:pageshadow="2" inkscape:window-height="706" inkscape:window-y="-8" showgrid="false" inkscape:cy="20.874172" inkscape:cx="69.25" inkscape:zoom="1" borderopacity="1.0" bordercolor="#666666" pagecolor="#ffffff">
	<inkscape:grid  type="xygrid" id="grid7756" snapvisiblegridlinesonly="true" enabled="true" visible="true" empspacing="12">
		</inkscape:grid>
</sodipodi:namedview>
<g id="layer1" transform="translate(0,-924.36218)" inkscape:label="Layer 1" inkscape:groupmode="layer">
	<g id="g7796">
		
			<radialGradient id="rect2801_1_" cx="-763.3982" cy="1347.7653" r="1.3969" gradientTransform="matrix(6.4121 0 0 -1.8451 4567.0122 3722.5869)" gradientUnits="userSpaceOnUse">
			<stop  offset="0" style="stop-color:#181818"/>
			<stop  offset="1" style="stop-color:#181818;stop-opacity:0"/>
		</radialGradient>
		<rect id="rect2801" x="-328" y="1233.3" class="st0" width="8.9" height="5.2"/>
		
			<radialGradient id="rect3696_1_" cx="-892.5289" cy="1537.9591" r="1.3969" gradientTransform="matrix(-6.4121 0 0 1.8451 -6099.0122 -1601.778)" gradientUnits="userSpaceOnUse">
			<stop  offset="0" style="stop-color:#181818"/>
			<stop  offset="1" style="stop-color:#181818;stop-opacity:0"/>
		</radialGradient>
		<rect id="rect3696" x="-385" y="1233.3" class="st1" width="8.9" height="5.2"/>
		
			<linearGradient id="rect3700_1_" gradientUnits="userSpaceOnUse" x1="-671.2093" y1="1306.2913" x2="-671.2093" y2="1309.9152" gradientTransform="matrix(3.0714 0 0 -1.4286 1709.5717 3104.5938)">
			<stop  offset="0" style="stop-color:#181818;stop-opacity:0"/>
			<stop  offset="0.5" style="stop-color:#181818"/>
			<stop  offset="1" style="stop-color:#181818;stop-opacity:0"/>
		</linearGradient>
		<rect id="rect3700" x="-376" y="1233.3" class="st2" width="48.1" height="5.2"/>
	</g>
	
		<linearGradient id="rect6994_1_" gradientUnits="userSpaceOnUse" x1="-731.8437" y1="1594.0945" x2="-713.0757" y2="1594.0945" gradientTransform="matrix(0 2.8022 3.0267 0 -5176.856 3234.5598)">
		<stop  offset="0" style="stop-color:#F4F4F4"/>
		<stop  offset="1" style="stop-color:#DBDBDB"/>
	</linearGradient>
	<path id="rect6994" class="st3" d="M-323.5,1185.1v50c0,0.7-0.6,1.3-1.4,1.3h-54.2c-0.8,0-1.4-0.6-1.4-1.3v-50
		c0-0.7,0.6-1.3,1.4-1.3h54.2C-324.1,1183.8-323.5,1184.4-323.5,1185.1z"/>
	
		<linearGradient id="rect7002_1_" gradientUnits="userSpaceOnUse" x1="-690.4695" y1="1708.9166" x2="-660.6213" y2="1708.9166" gradientTransform="matrix(0 1.7414 2.1957 0 -4104.1865 2386.4658)">
		<stop  offset="0" style="stop-color:#FFFFFF"/>
		<stop  offset="1.785714e-002" style="stop-color:#FFFFFF;stop-opacity:0.2353"/>
		<stop  offset="0.9825" style="stop-color:#FFFFFF;stop-opacity:0.1569"/>
		<stop  offset="1" style="stop-color:#FFFFFF;stop-opacity:0.3922"/>
	</linearGradient>
	<path id="rect7002" class="st4" d="M-323.8,1185.1v50c0,0.6-0.5,1-1.1,1h-54.2c-0.6,0-1.1-0.5-1.1-1v-50c0-0.6,0.5-1,1.1-1h54.2
		C-324.3,1184-323.8,1184.5-323.8,1185.1z"/>
	
		<linearGradient id="rect6998_1_" gradientUnits="userSpaceOnUse" x1="-937.4905" y1="1705.2554" x2="-906.5855" y2="1705.2554" gradientTransform="matrix(0 -1.7759 2.2391 0 -4170.2896 -427.3275)">
		<stop  offset="0" style="stop-color:#000000;stop-opacity:0.3178"/>
		<stop  offset="1" style="stop-color:#000000;stop-opacity:0.2403"/>
	</linearGradient>
	<path id="rect6998" class="st5" d="M-323.2,1235.1v-50c0-0.9-0.8-1.5-1.7-1.5h-54.2c-0.9,0-1.7,0.7-1.7,1.5v50
		c0,0.9,0.8,1.5,1.7,1.5h54.2C-324,1236.6-323.2,1235.9-323.2,1235.1z"/>
	<g id="g8367" class="st6">
		<rect id="rect15710" x="-380.5" y="1194.1" class="st7" width="57" height="0.5"/>
		<rect id="rect15712" x="-380.5" y="1204.9" class="st7" width="57" height="0.5"/>
		<rect id="rect16848" x="-380.5" y="1215.8" class="st7" width="57" height="0.5"/>
		<rect id="rect7153" x="-380.5" y="1226.6" class="st7" width="57" height="0.5"/>
	</g>
</g>
<g>
	<path class="st8" d="M-343.1,277.9h-31.1c-0.3,0-0.6,0.1-0.7,0.3c-0.2,0.2-0.3,0.5-0.3,0.8c0.8,10.6,4.7,20,10.5,25.1
		c0.2,0.2,0.4,0.3,0.7,0.3h18.1c0.3,0,0.5-0.1,0.7-0.3c5.8-5.1,9.7-14.5,10.5-25.1c0-0.3-0.1-0.6-0.3-0.8c-0.2-0.2-0.5-0.3-0.7-0.3
		h-4.5"/>
	<g>
		<path class="st9" d="M-360.4,308.1h18.5c1,0,1.8-0.8,1.8-1.8c0-1-0.8-1.8-1.8-1.8h-26.1c-1,0-1.8,0.8-1.8,1.8s0.8,1.8,1.8,1.8h5"
			/>
		<path class="st9" d="M-335.1,282.2c-0.2,1.3-0.4,2.5-0.6,3.8c2.8,0.3,5,2.6,5,5.5c0,3-2.5,5.5-5.5,5.5c-1.1,0-2.1-0.3-3-0.9
			c-0.6,1.2-1.2,2.3-1.9,3.3c1.4,0.9,3.1,1.4,4.9,1.4c5.1,0,9.3-4.2,9.3-9.3C-327,286.7-330.5,282.8-335.1,282.2z"/>
	</g>
	<path class="st10" d="M-361.5,303.5c-5.7-5-9.9-11.9-11-24.8c0,0,0-0.1,0-0.1h-1c-0.3,0-0.5,0.1-0.7,0.3s-0.3,0.5-0.3,0.7
		c0.7,10.1,4.4,18.9,9.9,23.7c0.2,0.2,0.4,0.2,0.6,0.2h2.5C-361.4,303.6-361.5,303.6-361.5,303.5z"/>
	<g>
		<path class="st11" d="M-334.3,281.5c0.1-0.8,0.2-1.6,0.2-2.4c0-0.5-0.1-1-0.5-1.4c-0.4-0.4-0.8-0.6-1.3-0.6h-4.5
			c-0.4,0-0.8,0.4-0.8,0.8c0,0.4,0.4,0.8,0.8,0.8h4.5c0.1,0,0.1,0,0.2,0.1c0,0,0.1,0.1,0.1,0.2c-0.1,1-0.2,2.1-0.3,3.1c0,0,0,0,0,0
			c-0.2,1.3-0.4,2.5-0.6,3.7c0,0,0,0,0,0c-0.8,3.6-1.9,6.9-3.4,9.9c0,0,0,0,0,0.1c-0.6,1.1-1.2,2.2-1.9,3.2c0,0,0,0,0,0.1
			c-1.2,1.8-2.5,3.3-3.9,4.6c0,0-0.1,0.1-0.2,0.1H-364c-0.1,0-0.1,0-0.2-0.1c-5.6-4.9-9.5-14.1-10.2-24.6c0-0.1,0-0.1,0.1-0.2
			c0,0,0.1-0.1,0.2-0.1h31.1c0.4,0,0.8-0.4,0.8-0.8c0-0.4-0.4-0.8-0.8-0.8h-31.1c-0.5,0-1,0.2-1.3,0.6c-0.4,0.4-0.5,0.9-0.5,1.4
			c0.7,10.1,4.3,19.1,9.6,24.5h-1.7c-1.4,0-2.6,1.2-2.6,2.6c0,1.4,1.2,2.6,2.6,2.6h5c0.4,0,0.8-0.4,0.8-0.8s-0.4-0.8-0.8-0.8h-5
			c-0.6,0-1-0.5-1-1c0-0.6,0.5-1,1-1h4h18.1h4c0.6,0,1,0.5,1,1c0,0.6-0.5,1-1,1h-18.6c-0.4,0-0.8,0.4-0.8,0.8s0.4,0.8,0.8,0.8h18.5
			c1.4,0,2.6-1.2,2.6-2.6c0-1.4-1.2-2.6-2.6-2.6h-1.7c0.9-1,1.8-2,2.6-3.2c1.4,0.7,3,1.1,4.6,1.1c5.6,0,10.1-4.5,10.1-10.1
			C-326.2,286.6-329.6,282.5-334.3,281.5z M-335.2,286.8c2.1,0.5,3.6,2.4,3.6,4.6c0,2.6-2.1,4.7-4.7,4.7c-0.7,0-1.3-0.1-1.9-0.4
			C-336.9,293-335.9,290-335.2,286.8z M-336.3,300c-1.3,0-2.6-0.3-3.8-0.9c0,0,0,0,0-0.1c0-0.1,0.1-0.1,0.1-0.2
			c0.1-0.2,0.2-0.4,0.3-0.5c0,0,0,0,0,0c0.2-0.4,0.4-0.7,0.6-1.1c0.8,0.4,1.7,0.6,2.6,0.6c3.5,0,6.3-2.8,6.3-6.3
			c0-1.6-0.6-3.1-1.7-4.2c-0.9-0.9-2-1.6-3.2-1.9c0,0,0,0,0,0c0.1-0.7,0.3-1.4,0.4-2.2c3.9,0.9,6.7,4.3,6.7,8.3
			C-327.8,296.1-331.6,300-336.3,300z"/>
		<path class="st12" d="M-355.3,268.3c-1.1,1-1.7,2.2-1.7,3.4c0,2,1.6,3.4,1.7,3.5c0.1,0.1,0.3,0.2,0.5,0.2c0.2,0,0.4-0.1,0.6-0.3
			c0.3-0.3,0.3-0.8-0.1-1.1c0,0-1.2-1-1.2-2.3c0-0.8,0.4-1.5,1.2-2.2c1.1-1,1.7-2.2,1.7-3.4c0-2-1.6-3.4-1.7-3.5
			c-0.3-0.3-0.8-0.3-1.1,0.1c-0.3,0.3-0.3,0.8,0.1,1.1c0,0,1.1,1,1.2,2.3C-354.1,266.8-354.5,267.6-355.3,268.3z"/>
		<path class="st12" d="M-350,270.2c-0.8,0.7-1.3,1.6-1.2,2.5c0,1.4,1.1,2.4,1.3,2.6c0.1,0.1,0.3,0.2,0.5,0.2c0.2,0,0.4-0.1,0.6-0.3
			c0.3-0.3,0.3-0.8-0.1-1.1c0,0-0.7-0.6-0.7-1.4c0-0.4,0.2-0.9,0.7-1.3c0.8-0.7,1.3-1.6,1.2-2.5c0-1.4-1.1-2.4-1.3-2.6
			c-0.3-0.3-0.8-0.3-1.1,0.1c-0.3,0.3-0.3,0.8,0.1,1.1c0,0,0.7,0.6,0.7,1.4C-349.3,269.3-349.5,269.7-350,270.2z"/>
		<path class="st12" d="M-361.4,270.2c-0.8,0.7-1.3,1.6-1.2,2.5c0,1.4,1.1,2.4,1.3,2.6c0.1,0.1,0.3,0.2,0.5,0.2
			c0.2,0,0.4-0.1,0.6-0.3c0.3-0.3,0.3-0.8-0.1-1.1c0,0-0.7-0.6-0.7-1.4c0-0.4,0.2-0.9,0.7-1.3c0.8-0.7,1.3-1.6,1.2-2.5
			c0-1.4-1.1-2.4-1.3-2.6c-0.3-0.3-0.8-0.3-1.1,0.1c-0.3,0.3-0.3,0.8,0.1,1.1c0,0,0.7,0.6,0.7,1.4
			C-360.7,269.3-360.9,269.7-361.4,270.2z"/>
	</g>
</g>
</svg>
