<?xml version="1.0" encoding="utf-8"?>
<!-- Generator: Adobe Illustrator 19.0.0, SVG Export Plug-In . SVG Version: 6.00 Build 0)  -->
<svg version="1.1" id="Capa_1" xmlns="http://www.w3.org/2000/svg" xmlns:xlink="http://www.w3.org/1999/xlink" x="0px" y="0px"
	 viewBox="-401 202.4 156.6 156.6" style="enable-background:new -401 202.4 156.6 156.6;" xml:space="preserve">
<style type="text/css">
	.st0{fill:#BCAB22;}
</style>
<g>
	<path class="st0" d="M-378.1,320.7c0.7,0.7,1.4,1.4,2,2.3c1.4,1.4,2.5,2.5,3.9,3.9c10.2,8.9,23.5,14.6,37.8,15.5
		c1.1,0,2.5,0.2,3.9,0.2c34.8,0,63.3-28.2,63.3-63.3c0-28.2-18.7-52.4-44.4-60.3c1.4,1.6,2.7,3.2,3.9,5l0,0c0.7,0.9,1.4,1.8,2,3
		c6.1,9.8,9.8,21.4,9.8,33.7c0,34.8-28.2,63.3-63.3,63.3c-1.4,0-2.5,0-3.9-0.2C-368.4,323.2-373.4,322-378.1,320.7z"/>
</g>
</svg>
