<?xml version="1.0" encoding="utf-8"?>
<!-- Generator: Adobe Illustrator 19.0.0, SVG Export Plug-In . SVG Version: 6.00 Build 0)  -->
<svg version="1.1" id="Capa_1" xmlns="http://www.w3.org/2000/svg" xmlns:xlink="http://www.w3.org/1999/xlink" x="0px" y="0px"
	 viewBox="-401 202.4 156.6 156.6" style="enable-background:new -401 202.4 156.6 156.6;" xml:space="preserve">
<style type="text/css">
	.st0{fill:#BCAB22;}
	.st1{fill:#426170;}
	.st2{fill:#88C2D3;}
</style>
<g>
	<path class="st0" d="M-401,270.9c0.3,0.3,0.6,0.6,0.9,1c0.6,0.6,1.1,1.1,1.7,1.7c4.5,3.9,10.3,6.4,16.6,6.8c0.5,0,1.1,0.1,1.7,0.1
		c15.3,0,27.8-12.4,27.8-27.8c0-12.4-8.2-23-19.5-26.5c0.6,0.7,1.2,1.4,1.7,2.2l0,0c0.3,0.4,0.6,0.8,0.9,1.3
		c2.7,4.3,4.3,9.4,4.3,14.8c0,15.3-12.4,27.8-27.8,27.8c-0.6,0-1.1,0-1.7-0.1C-396.7,272-398.9,271.5-401,270.9z"/>
	<g>
		<g id="XMLID_1_">
			<g>
				<path class="st1" d="M-251.8,291c4.7,4.9,7.3,11.3,7.3,18.1c0,14.3-11.7,26-26,26h-89.4c-14.3,0-26-11.7-26-26
					c0-6.9,2.7-13.5,7.6-18.4c4.8-4.8,11.2-7.5,18-7.6c0,0,0,0,0.1,0c0,0,0.1,0,0.2,0c0,0,0,0,0.1,0c1.8-0.1,3.2-1.5,3.2-3.3
					c0-9.1,3.5-17.6,9.9-24s14.9-9.9,24-9.9c7.8,0,15.4,2.7,21.4,7.6c4.7,3.8,8.3,8.8,10.4,14.4c2-0.7,4.2-1.1,6.4-1.1
					c9.7,0,17.6,7.3,18.7,16.7C-260.6,284.4-255.6,287-251.8,291z M-251.9,309.1c0-4.8-1.8-9.4-5.2-12.9c-3.4-3.5-7.9-5.4-12.7-5.6
					c-1,0-2-0.5-2.7-1.3s-1-1.8-0.9-2.8c0-0.3,0-0.7,0-1c0-6.2-5.1-11.3-11.3-11.3c-2.3,0-4.6,0.7-6.5,2.1c-1,0.7-2.4,0.9-3.5,0.4
					c-1.2-0.4-2-1.5-2.3-2.7c-1.3-5.8-4.5-11-9.1-14.8c-4.7-3.8-10.6-5.9-16.6-5.9c-14.6,0-26.4,11.9-26.4,26.4
					c0,2.8-1.1,5.5-3.1,7.5s-4.6,3.2-7.4,3.3c-0.1,0-0.2,0-0.5,0c-4.8,0.1-9.3,2-12.8,5.4c-3.5,3.5-5.4,8.1-5.4,13.1
					c0,10.2,8.3,18.5,18.5,18.5h89.4C-260.2,327.5-251.9,319.3-251.9,309.1z"/>
				<path class="st2" d="M-257.2,296.2c3.4,3.5,5.2,8,5.2,12.9c0,10.2-8.3,18.5-18.5,18.5h-89.4c-10.2,0-18.5-8.3-18.5-18.5
					c0-4.9,1.9-9.6,5.4-13.1c3.4-3.4,7.9-5.3,12.8-5.4c0.2,0,0.4,0,0.5,0c2.8-0.1,5.4-1.3,7.4-3.3s3.1-4.7,3.1-7.5
					c0-14.6,11.9-26.4,26.4-26.4c6.1,0,12,2.1,16.6,5.9s7.9,9,9.1,14.8c0.3,1.2,1.1,2.2,2.3,2.7c1.2,0.5,2.5,0.3,3.5-0.4
					c1.9-1.4,4.1-2.1,6.5-2.1c6.2,0,11.3,5.1,11.3,11.3c0,0.3,0,0.6,0,1c-0.1,1,0.3,2,0.9,2.8c0.7,0.8,1.7,1.2,2.7,1.3
					C-265,290.8-260.5,292.7-257.2,296.2z"/>
			</g>
		</g>
	</g>
</g>
</svg>
