<?xml version="1.0" encoding="utf-8"?>
<!-- Generator: Adobe Illustrator 19.0.0, SVG Export Plug-In . SVG Version: 6.00 Build 0)  -->
<svg version="1.1" id="Capa_1" xmlns="http://www.w3.org/2000/svg" xmlns:xlink="http://www.w3.org/1999/xlink" x="0px" y="0px"
	 viewBox="-408 210.6 141.4 141.4" style="enable-background:new -408 210.6 141.4 141.4;" xml:space="preserve">
<style type="text/css">
	.st0{fill:#88C2D3;}
	.st1{fill:#426170;}
</style>
<g>
	<g id="XMLID_1_">
		<g>
			<path class="st0" d="M-279.4,287.1c3.4,3.5,5.2,8,5.2,12.9c0,10.2-8.3,18.5-18.5,18.5H-382c-10.2,0-18.5-8.3-18.5-18.5
				c0-4.9,1.9-9.6,5.4-13.1c3.4-3.4,7.9-5.3,12.8-5.4c0.2,0,0.4,0,0.4,0c2.8-0.1,5.4-1.3,7.4-3.3c2-2,3-4.7,3-7.5
				c0-14.6,11.9-26.4,26.4-26.4c6,0,12,2.1,16.6,5.9c4.6,3.8,7.9,9,9.1,14.8c0.3,1.2,1.1,2.2,2.3,2.7c1.2,0.5,2.5,0.3,3.5-0.4
				c1.9-1.4,4.1-2.1,6.5-2.1c6.2,0,11.3,5.1,11.3,11.3c0,0.3,0,0.6,0,1c-0.1,1,0.3,2,0.9,2.8c0.7,0.8,1.7,1.2,2.7,1.3
				C-287.2,281.6-282.7,283.6-279.4,287.1z"/>
			<path class="st1" d="M-274,281.8c4.7,4.9,7.3,11.3,7.3,18.1c0,14.3-11.7,26-26,26H-382c-14.3,0-26-11.6-26-26
				c0-6.9,2.7-13.5,7.6-18.4c4.8-4.8,11.2-7.5,18-7.6c0,0,0,0,0.1,0c0,0,0.1,0,0.2,0c0,0,0,0,0.1,0c1.8-0.1,3.2-1.5,3.2-3.3
				c0-9.1,3.5-17.6,9.9-24c6.4-6.4,14.9-9.9,24-9.9c7.8,0,15.4,2.7,21.4,7.6c4.7,3.8,8.3,8.8,10.4,14.4c2-0.7,4.2-1.1,6.4-1.1
				c9.6,0,17.6,7.3,18.7,16.7C-282.8,275.3-277.9,277.8-274,281.8z M-274.2,299.9c0-4.8-1.8-9.4-5.2-12.9c-3.4-3.5-7.9-5.4-12.7-5.6
				c-1,0-2-0.5-2.7-1.3c-0.7-0.8-1-1.8-0.9-2.8c0-0.3,0-0.7,0-1c0-6.2-5.1-11.3-11.3-11.3c-2.4,0-4.6,0.7-6.5,2.1
				c-1,0.7-2.4,0.9-3.5,0.4c-1.2-0.5-2-1.5-2.3-2.7c-1.3-5.8-4.5-11-9.1-14.8c-4.7-3.8-10.6-5.9-16.6-5.9
				c-14.6,0-26.4,11.9-26.4,26.4c0,2.8-1.1,5.5-3,7.5c-2,2-4.6,3.2-7.4,3.3c-0.1,0-0.2,0-0.4,0c-4.8,0.1-9.3,2-12.8,5.4
				c-3.5,3.5-5.4,8.1-5.4,13.1c0,10.2,8.3,18.5,18.5,18.5h89.4C-282.5,318.4-274.2,310.1-274.2,299.9z"/>
		</g>
		<g>
		</g>
	</g>
</g>
</svg>
