<?xml version="1.0" encoding="iso-8859-1"?>
<!-- Generator: Adobe Illustrator 18.0.0, SVG Export Plug-In . SVG Version: 6.00 Build 0)  -->
<!DOCTYPE svg PUBLIC "-//W3C//DTD SVG 1.1//EN" "http://www.w3.org/Graphics/SVG/1.1/DTD/svg11.dtd">
<svg version="1.1" id="Capa_1" xmlns="http://www.w3.org/2000/svg" xmlns:xlink="http://www.w3.org/1999/xlink" x="0px" y="0px"
	 viewBox="0 0 156.579 156.579" style="enable-background:new 0 0 156.579 156.579;" xml:space="preserve">
<g>
	<path style="fill:#BCAB22;" d="M0,62.141c0.234,0.261,0.47,0.525,0.714,0.777c0.453,0.472,0.926,0.927,1.415,1.352
		c3.645,3.202,8.34,5.233,13.509,5.542c0.444,0.036,0.898,0.047,1.352,0.047c12.455,0,22.554-10.104,22.554-22.563
		c0-10.104-6.646-18.656-15.812-21.53c0.49,0.564,0.953,1.143,1.379,1.754l0.01,0.009c0.244,0.332,0.48,0.688,0.698,1.041
		c2.211,3.481,3.491,7.606,3.491,12.039c0,12.457-10.109,22.556-22.566,22.556c-0.454,0-0.915-0.02-1.361-0.045
		C3.517,63.01,1.711,62.675,0,62.141z"/>
	<g>
		<path style="fill:#7997A8;" d="M71.053,130.813c-1.068,0-2.135-0.41-2.945-1.237l-9.689-9.84c-1.602-1.62-1.582-4.241,0.048-5.847
			c1.626-1.6,4.242-1.582,5.843,0.044l9.694,9.845c1.6,1.626,1.58,4.242-0.044,5.847C73.149,130.414,72.099,130.813,71.053,130.813z
			"/>
	</g>
	<g>
		<path style="fill:#7997A8;" d="M80.031,111.99c-1.062,0-2.136-0.411-2.944-1.237l-9.688-9.844c-1.604-1.623-1.58-4.244,0.043-5.85
			c1.629-1.602,4.25-1.584,5.852,0.044l9.69,9.85c1.601,1.626,1.577,4.243-0.048,5.847C82.129,111.592,81.082,111.99,80.031,111.99z
			"/>
	</g>
	<g>
		<path style="fill:#7997A8;" d="M107.393,130.813c-1.069,0-2.137-0.41-2.947-1.237l-9.686-9.84
			c-1.604-1.62-1.588-4.241,0.042-5.847c1.625-1.6,4.246-1.582,5.848,0.044l9.689,9.845c1.605,1.626,1.586,4.242-0.045,5.847
			C109.491,130.414,108.44,130.813,107.393,130.813z"/>
	</g>
	<path style="fill:#426170;" d="M149.238,80.482c-3.879-3.996-8.839-6.597-14.235-7.517c-1.047-9.384-9.023-16.699-18.678-16.699
		c-2.191,0-4.332,0.373-6.352,1.099c-2.107-5.595-5.692-10.603-10.375-14.41c-6.022-4.897-13.619-7.593-21.394-7.593
		c-9.063,0-17.585,3.528-23.993,9.938c-6.41,6.409-9.94,14.931-9.94,23.997c0,1.783-1.388,3.227-3.163,3.298
		c-0.016,0-0.031,0.001-0.047,0.001c-0.07,0.002-0.175,0.001-0.196,0.001c-0.018,0-0.037,0-0.056,0.001
		c-6.785,0.103-13.167,2.804-17.972,7.608c-4.907,4.909-7.608,11.44-7.608,18.385c0,14.334,11.656,25.991,25.984,25.991h10.718
		v-7.518H41.214c-10.184,0-18.468-8.285-18.468-18.474c0-4.936,1.921-9.577,5.407-13.066c3.407-3.408,7.932-5.328,12.743-5.407
		c0.241,0,0.369-0.003,0.456-0.006c2.807-0.099,5.431-1.265,7.389-3.287c1.965-2.028,3.047-4.702,3.047-7.528
		c0-14.568,11.851-26.418,26.417-26.418c6.052,0,11.965,2.099,16.65,5.908c4.621,3.759,7.868,9.01,9.143,14.79
		c0.271,1.229,1.139,2.24,2.313,2.695c1.173,0.455,2.497,0.292,3.524-0.434c1.905-1.344,4.149-2.055,6.49-2.055
		c6.217,0,11.275,5.061,11.275,11.281c0,0.318-0.015,0.647-0.043,0.979c-0.088,1.029,0.252,2.049,0.937,2.819
		c0.686,0.772,1.66,1.229,2.692,1.26c4.807,0.151,9.302,2.139,12.658,5.598c3.365,3.466,5.218,8.036,5.218,12.869
		c0,10.188-8.285,18.474-18.468,18.474h-10.719v7.518h10.719c14.327,0,25.984-11.657,25.984-25.991
		C156.579,91.79,153.971,85.358,149.238,80.482z"/>
</g>
<g>
</g>
<g>
</g>
<g>
</g>
<g>
</g>
<g>
</g>
<g>
</g>
<g>
</g>
<g>
</g>
<g>
</g>
<g>
</g>
<g>
</g>
<g>
</g>
<g>
</g>
<g>
</g>
<g>
</g>
</svg>
