<?xml version="1.0" encoding="utf-8"?>
<!-- Generator: Adobe Illustrator 19.0.0, SVG Export Plug-In . SVG Version: 6.00 Build 0)  -->
<svg version="1.1" id="Capa_1" xmlns="http://www.w3.org/2000/svg" xmlns:xlink="http://www.w3.org/1999/xlink" x="0px" y="0px"
	 viewBox="-402 203.2 154.8 154.8" style="enable-background:new -402 203.2 154.8 154.8;" xml:space="preserve">
<style type="text/css">
	.st0{fill:#BCAB22;}
	.st1{fill:#426170;}
	.st2{fill:#7997A8;}
	.st3{fill:#88C2D3;}
</style>
<g>
	<path class="st0" d="M-402,256.8c0.2,0.3,0.5,0.5,0.7,0.8c0.5,0.5,0.9,0.9,1.4,1.4c3.6,3.2,8.3,5.2,13.5,5.5c0.4,0,0.9,0,1.4,0
		c12.5,0,22.6-10.1,22.6-22.6c0-10.1-6.6-18.7-15.8-21.5c0.5,0.6,1,1.1,1.4,1.8l0,0c0.2,0.3,0.5,0.7,0.7,1c2.2,3.5,3.5,7.6,3.5,12
		c0,12.5-10.1,22.6-22.6,22.6c-0.5,0-0.9,0-1.4,0C-398.5,257.6-400.3,257.3-402,256.8z"/>
	<g id="XMLID_1_">
		<g>
			<path class="st1" d="M-254.5,278.4c4.7,4.9,7.3,11.3,7.3,18.1c0,14.3-11.6,26-26,26h-10.7v-7.5h10.7c10.2,0,18.5-8.3,18.5-18.5
				c0-4.8-1.9-9.4-5.2-12.9c-3.4-3.5-7.8-5.5-12.7-5.6c-1,0-2-0.5-2.7-1.3s-1-1.8-0.9-2.8c0-0.3,0-0.7,0-1c0-6.2-5.1-11.3-11.3-11.3
				c-2.3,0-4.6,0.7-6.5,2.1c-1,0.7-2.4,0.9-3.5,0.4c-1.2-0.5-2-1.5-2.3-2.7c-1.3-5.8-4.5-11-9.1-14.8c-4.7-3.8-10.6-5.9-16.6-5.9
				c-14.6,0-26.4,11.9-26.4,26.4c0,2.8-1.1,5.5-3,7.5c-2,2-4.6,3.2-7.4,3.3c-0.1,0-0.2,0-0.5,0c-4.8,0.1-9.3,2-12.7,5.4
				c-3.5,3.5-5.4,8.1-5.4,13.1c0,10.2,8.3,18.5,18.5,18.5h10.7v7.5h-10.7c-14.3,0-26-11.6-26-26c0-6.9,2.7-13.5,7.6-18.4
				c4.8-4.8,11.2-7.5,18-7.6c0,0,0,0,0.1,0c0,0,0.1,0,0.2,0c0,0,0,0,0,0c1.8-0.1,3.2-1.5,3.2-3.3c0-9.1,3.5-17.6,9.9-24
				c6.4-6.4,14.9-9.9,24-9.9c7.8,0,15.4,2.7,21.4,7.6c4.7,3.8,8.3,8.8,10.4,14.4c2-0.7,4.2-1.1,6.4-1.1c9.7,0,17.6,7.3,18.7,16.7
				C-263.3,271.8-258.4,274.4-254.5,278.4z"/>
		</g>
		<g>
		</g>
	</g>
	<g>
		<g>
			<path class="st2" d="M-335.7,354.8c-1,0-1.9-0.8-1.9-1.9v-24.7c0-1,0.8-1.9,1.9-1.9c1,0,1.9,0.8,1.9,1.9v24.7
				C-333.8,353.9-334.7,354.8-335.7,354.8z"/>
		</g>
		<g>
			<path class="st2" d="M-329.3,354.8c-1,0-1.9-0.8-1.9-1.9v-24.7c0-1,0.8-1.9,1.9-1.9s1.9,0.8,1.9,1.9v24.7
				C-327.4,353.9-328.2,354.8-329.3,354.8z"/>
		</g>
		<g>
			<path class="st2" d="M-322.8,354.8c-1,0-1.9-0.8-1.9-1.9v-24.7c0-1,0.8-1.9,1.9-1.9c1,0,1.9,0.8,1.9,1.9v24.7
				C-321,353.9-321.8,354.8-322.8,354.8z"/>
		</g>
		<g>
			<path class="st2" d="M-316.4,354.8c-1,0-1.9-0.8-1.9-1.9v-24.7c0-1,0.8-1.9,1.9-1.9c1,0,1.9,0.8,1.9,1.9v24.7
				C-314.6,353.9-315.4,354.8-316.4,354.8z"/>
		</g>
		<g>
			<path class="st2" d="M-310,354.8c-1,0-1.9-0.8-1.9-1.9v-24.7c0-1,0.8-1.9,1.9-1.9c1,0,1.9,0.8,1.9,1.9v24.7
				C-308.1,353.9-309,354.8-310,354.8z"/>
		</g>
		<g>
			<path class="st2" d="M-303.6,354.8c-1,0-1.9-0.8-1.9-1.9v-24.7c0-1,0.8-1.9,1.9-1.9c1,0,1.9,0.8,1.9,1.9v24.7
				C-301.7,353.9-302.5,354.8-303.6,354.8z"/>
		</g>
	</g>
</g>
<g id="XMLID_13_">
	<g id="XMLID_19_">
		<path class="st3" d="M-362,314.8c-10.2,0-18.5-8.3-18.5-18.5c0-3.2,0.8-6.3,2.4-9.1c0.8-1.4,1.8-2.8,3-4c3.4-3.4,7.9-5.3,12.8-5.4
			c0.2,0,0.4,0,0.5,0c2.8-0.1,5.4-1.3,7.4-3.3c2-2,3.1-4.7,3.1-7.5c0-6.3,2.2-12,5.9-16.6c4.8-6,12.3-9.8,20.5-9.8
			c6.1,0,12,2.1,16.6,5.9c4.6,3.8,7.9,9,9.1,14.8c0.3,1.2,1.1,2.3,2.3,2.7c1.2,0.5,2.5,0.3,3.5-0.4c1.9-1.4,4.2-2.1,6.5-2.1
			c6.2,0,11.3,5.1,11.3,11.3c0,0.3,0,0.6,0,1c-0.1,1,0.3,2,0.9,2.8c0.7,0.8,1.7,1.2,2.7,1.3c4.8,0.2,9.3,2.1,12.7,5.6
			c3.4,3.5,5.2,8,5.2,12.9c0,10.2-8.3,18.5-18.5,18.5H-362z"/>
		<path class="st1" d="M-380.4,296.4c0,10.2,8.3,18.5,18.5,18.5h89.4c10.2,0,18.5-8.3,18.5-18.5c0-4.8-1.8-9.4-5.2-12.9
			c-3.4-3.5-7.9-5.4-12.7-5.6c-1,0-2-0.5-2.7-1.3c-0.7-0.8-1-1.8-0.9-2.8c0-0.3,0-0.7,0-1c0-6.2-5.1-11.3-11.3-11.3
			c-2.3,0-4.6,0.7-6.5,2.1c-1,0.7-2.3,0.9-3.5,0.4c-1.2-0.4-2-1.5-2.3-2.7c-1.3-5.8-4.5-11-9.1-14.8c-4.7-3.8-10.6-5.9-16.6-5.9
			c-8.3,0-15.7,3.8-20.5,9.8c-3.7,4.5-5.9,10.3-5.9,16.6c0,2.8-1.1,5.5-3.1,7.5c-2,2-4.6,3.2-7.4,3.3c-0.1,0-0.2,0-0.5,0
			c-4.8,0.1-9.3,2-12.8,5.4c-1.2,1.2-2.2,2.5-3,4C-379.6,290-380.4,293.1-380.4,296.4z M-349,243.1c6.4-6.4,14.9-9.9,24-9.9
			c7.8,0,15.4,2.7,21.4,7.6c4.7,3.8,8.3,8.8,10.4,14.4c2-0.7,4.2-1.1,6.3-1.1c9.7,0,17.6,7.3,18.7,16.7c5.4,0.9,10.4,3.5,14.2,7.5
			c4.7,4.9,7.3,11.3,7.3,18.1c0,14.3-11.7,26-26,26H-362c-14.3,0-26-11.7-26-26c0-4.4,1.1-8.6,3.1-12.3c1.2-2.2,2.7-4.2,4.5-6
			c4.8-4.8,11.2-7.5,18-7.6c0,0,0,0,0.1,0c0,0,0.1,0,0.2,0c0,0,0,0,0,0c1.8-0.1,3.2-1.5,3.2-3.3c0-8.7,3.2-16.8,9.1-23.1
			C-349.5,243.6-349.2,243.4-349,243.1z"/>
	</g>
	<g id="XMLID_18_">
	</g>
</g>
</svg>
