<?xml version="1.0" encoding="utf-8"?>
<!-- Generator: Adobe Illustrator 19.0.0, SVG Export Plug-In . SVG Version: 6.00 Build 0)  -->
<svg version="1.1" id="Capa_1" xmlns="http://www.w3.org/2000/svg" xmlns:xlink="http://www.w3.org/1999/xlink" x="0px" y="0px"
	 viewBox="-404 205.8 150.2 150.2" style="enable-background:new -404 205.8 150.2 150.2;" xml:space="preserve">
<style type="text/css">
	.st0{fill:#E28749;}
	.st1{fill:#7997A8;}
	.st2{fill:#88C2D3;}
	.st3{fill:#426170;}
</style>
<g>
	<path class="st0" d="M-357,245c-5.9,6.3-9.1,14.5-9.1,23.1c0,1.8-1.4,3.2-3.2,3.3c0,0,0,0,0,0c-0.1,0-0.2,0-0.2,0c0,0,0,0-0.1,0
		c-6.8,0.1-13.2,2.8-18,7.6c-1.8,1.8-3.3,3.8-4.5,6c-7.2-4.8-12-13-12-22.4c0-14.8,12-26.9,26.9-26.9
		C-369.1,235.9-361.9,239.4-357,245z"/>
	<g>
		<g>
			<path class="st1" d="M-331.3,354.6c-1.1,0-2.1-0.4-2.9-1.2l-9.7-9.8c-1.6-1.6-1.6-4.2,0-5.8c1.6-1.6,4.2-1.6,5.8,0l9.7,9.8
				c1.6,1.6,1.6,4.2,0,5.8C-329.2,354.2-330.3,354.6-331.3,354.6z"/>
		</g>
		<g>
			<path class="st1" d="M-318.3,342.8c-1.1,0-2.1-0.4-2.9-1.2l-9.7-9.8c-1.6-1.6-1.6-4.2,0-5.8c1.6-1.6,4.3-1.6,5.9,0l9.7,9.8
				c1.6,1.6,1.6,4.2,0,5.8C-316.2,342.4-317.3,342.8-318.3,342.8z"/>
		</g>
		<g>
			<path class="st1" d="M-295,353.6c-1.1,0-2.1-0.4-2.9-1.2l-9.7-9.8c-1.6-1.6-1.6-4.2,0-5.8c1.6-1.6,4.2-1.6,5.8,0l9.7,9.8
				c1.6,1.6,1.6,4.2,0,5.8C-292.9,353.2-293.9,353.6-295,353.6z"/>
		</g>
	</g>
</g>
<g id="XMLID_1_">
	<g id="XMLID_6_">
		<path class="st2" d="M-352.7,251.6c4.8-6,12.3-9.8,20.5-9.8c6.1,0,12,2.1,16.7,5.9c4.6,3.8,7.9,9,9.1,14.8
			c0.3,1.2,1.1,2.3,2.3,2.7c1.2,0.5,2.5,0.3,3.5-0.4c1.9-1.4,4.1-2.1,6.5-2.1c6.2,0,11.3,5.1,11.3,11.3c0,0.3,0,0.6,0,1
			c-0.1,1,0.3,2,0.9,2.8c0.7,0.8,1.7,1.2,2.7,1.3c4.8,0.1,9.3,2.1,12.7,5.6c3.4,3.5,5.2,8,5.2,12.9c0,10.2-8.3,18.5-18.5,18.5h-89.4
			c-10.2,0-18.5-8.3-18.5-18.5c0-3.2,0.8-6.3,2.4-9.1c0.8-1.4,1.8-2.8,3-4c3.4-3.4,7.9-5.3,12.8-5.4c0.2,0,0.4,0,0.5,0
			c2.8-0.1,5.4-1.3,7.4-3.3c2-2,3.1-4.7,3.1-7.5C-358.6,261.9-356.4,256.2-352.7,251.6z"/>
		<path class="st3" d="M-332.1,241.8c-8.3,0-15.7,3.8-20.5,9.8c-3.7,4.5-5.9,10.3-5.9,16.6c0,2.8-1.1,5.5-3.1,7.5
			c-2,2-4.6,3.2-7.4,3.3c-0.1,0-0.2,0-0.5,0c-4.8,0.1-9.3,2-12.8,5.4c-1.2,1.2-2.2,2.6-3,4c-1.5,2.7-2.4,5.9-2.4,9.1
			c0,10.2,8.3,18.5,18.5,18.5h89.4c10.2,0,18.5-8.3,18.5-18.5c0-4.8-1.9-9.4-5.2-12.9c-3.4-3.5-7.9-5.5-12.7-5.6c-1,0-2-0.5-2.7-1.3
			c-0.7-0.8-1-1.8-0.9-2.8c0-0.3,0-0.7,0-1c0-6.2-5.1-11.3-11.3-11.3c-2.3,0-4.6,0.7-6.5,2.1c-1,0.7-2.4,0.9-3.5,0.4
			c-1.2-0.5-2-1.5-2.3-2.7c-1.3-5.8-4.5-11-9.1-14.8C-320.2,243.9-326.1,241.8-332.1,241.8z M-356.1,244.2c6.4-6.4,14.9-9.9,24-9.9
			c7.8,0,15.4,2.7,21.4,7.6c4.7,3.8,8.3,8.8,10.4,14.4c2-0.7,4.2-1.1,6.4-1.1c9.6,0,17.6,7.3,18.7,16.7c5.4,0.9,10.4,3.5,14.2,7.5
			c4.7,4.9,7.3,11.3,7.3,18.1c0,14.3-11.7,26-26,26h-89.4c-14.3,0-26-11.7-26-26c0-4.4,1.1-8.6,3.1-12.3c1.2-2.2,2.7-4.2,4.5-6
			c4.8-4.8,11.2-7.5,18-7.6c0,0,0,0,0.1,0c0,0,0.1,0,0.2,0c0,0,0,0,0.1,0c1.8-0.1,3.2-1.5,3.2-3.3c0-8.7,3.2-16.8,9.1-23.1
			C-356.7,244.8-356.4,244.5-356.1,244.2z"/>
	</g>
	<g id="XMLID_7_">
	</g>
</g>
</svg>
