<?xml version="1.0" encoding="utf-8"?>
<!-- Generator: Adobe Illustrator 19.0.0, SVG Export Plug-In . SVG Version: 6.00 Build 0)  -->
<svg version="1.1" id="Capa_1" xmlns="http://www.w3.org/2000/svg" xmlns:xlink="http://www.w3.org/1999/xlink" x="0px" y="0px"
	 viewBox="-408 210.7 141.3 141.3" style="enable-background:new -408 210.7 141.3 141.3;" xml:space="preserve">
<style type="text/css">
	.st0{fill:#7997A8;}
	.st1{fill:#88C2D3;}
	.st2{fill:#426170;}
</style>
<g>
	<g>
		<path class="st0" d="M-330,322.4h-5.3l3.7-3.7c0.3-0.3,0.3-0.9,0-1.2c-0.3-0.3-0.9-0.3-1.2,0l-3.7,3.7v-5.3c0-0.5-0.4-0.8-0.8-0.8
			c-0.5,0-0.8,0.4-0.8,0.8v5.3l-3.7-3.7c-0.3-0.3-0.9-0.3-1.2,0c-0.3,0.3-0.3,0.9,0,1.2l3.7,3.7h-5.3c-0.5,0-0.8,0.4-0.8,0.8
			c0,0.5,0.4,0.8,0.8,0.8h5.3l-3.7,3.7c-0.3,0.3-0.3,0.9,0,1.2c0.2,0.2,0.4,0.2,0.6,0.2c0.2,0,0.4-0.1,0.6-0.2l3.7-3.7v5.3
			c0,0.5,0.4,0.8,0.8,0.8c0.5,0,0.8-0.4,0.8-0.8v-5.3l3.7,3.7c0.2,0.2,0.4,0.2,0.6,0.2c0.2,0,0.4-0.1,0.6-0.2c0.3-0.3,0.3-0.9,0-1.2
			l-3.7-3.7h5.3c0.5,0,0.8-0.4,0.8-0.8C-329.1,322.8-329.5,322.4-330,322.4z"/>
	</g>
</g>
<g id="XMLID_1_">
	<g id="XMLID_6_">
		<path class="st1" d="M-365.6,238c4.8-6,12.3-9.8,20.5-9.8c6.1,0,12,2.1,16.7,5.9c4.6,3.8,7.9,9,9.1,14.8c0.3,1.2,1.1,2.3,2.3,2.7
			c1.2,0.5,2.5,0.3,3.5-0.4c1.9-1.4,4.1-2.1,6.5-2.1c6.2,0,11.3,5.1,11.3,11.3c0,0.3,0,0.6,0,1c-0.1,1,0.3,2,0.9,2.8
			c0.7,0.8,1.7,1.2,2.7,1.3c4.8,0.1,9.3,2.1,12.7,5.6c3.4,3.5,5.2,8,5.2,12.9c0,10.2-8.3,18.5-18.5,18.5h-89.4
			c-10.2,0-18.5-8.3-18.5-18.5c0-3.2,0.8-6.3,2.4-9.1c0.8-1.4,1.8-2.8,3-4c3.4-3.4,7.9-5.3,12.8-5.4c0.2,0,0.4,0,0.5,0
			c2.8-0.1,5.4-1.3,7.4-3.3s3.1-4.7,3.1-7.5C-371.5,248.3-369.3,242.6-365.6,238z"/>
		<path class="st2" d="M-345,228.2c-8.3,0-15.7,3.8-20.5,9.8c-3.7,4.5-5.9,10.3-5.9,16.6c0,2.8-1.1,5.5-3.1,7.5s-4.6,3.2-7.4,3.3
			c-0.1,0-0.2,0-0.5,0c-4.8,0.1-9.3,2-12.8,5.4c-1.2,1.2-2.2,2.6-3,4c-1.5,2.7-2.4,5.9-2.4,9.1c0,10.2,8.3,18.5,18.5,18.5h89.4
			c10.2,0,18.5-8.3,18.5-18.5c0-4.8-1.9-9.4-5.2-12.9c-3.4-3.5-7.9-5.5-12.7-5.6c-1,0-2-0.5-2.7-1.3s-1-1.8-0.9-2.8c0-0.3,0-0.7,0-1
			c0-6.2-5.1-11.3-11.3-11.3c-2.3,0-4.6,0.7-6.5,2.1c-1,0.7-2.4,0.9-3.5,0.4c-1.2-0.5-2-1.5-2.3-2.7c-1.3-5.8-4.5-11-9.1-14.8
			C-333.1,230.3-339,228.2-345,228.2z M-369,230.6c6.4-6.4,14.9-9.9,24-9.9c7.8,0,15.4,2.7,21.4,7.6c4.7,3.8,8.3,8.8,10.4,14.4
			c2-0.7,4.2-1.1,6.4-1.1c9.6,0,17.6,7.3,18.7,16.7c5.4,0.9,10.4,3.5,14.2,7.5c4.7,4.9,7.3,11.3,7.3,18.1c0,14.3-11.7,26-26,26H-382
			c-14.3,0-26-11.7-26-26c0-4.4,1.1-8.6,3.1-12.3c1.2-2.2,2.7-4.2,4.5-6c4.8-4.8,11.2-7.5,18-7.6c0,0,0,0,0.1,0c0,0,0.1,0,0.2,0
			c0,0,0,0,0.1,0c1.8-0.1,3.2-1.5,3.2-3.3c0-8.7,3.2-16.8,9.1-23.1C-369.6,231.2-369.3,230.9-369,230.6z"/>
	</g>
	<g id="XMLID_7_">
	</g>
</g>
<g>
	<path class="st0" d="M-349,344.7c-1.1,0-2.1-0.4-2.9-1.2l-9.7-9.8c-1.6-1.6-1.6-4.2,0-5.8c1.6-1.6,4.2-1.6,5.8,0l9.7,9.8
		c1.6,1.6,1.6,4.2,0,5.8C-346.9,344.3-348,344.7-349,344.7z"/>
	<path class="st0" d="M-309.7,344.7c-1.1,0-2.1-0.4-2.9-1.2l-9.7-9.8c-1.6-1.6-1.6-4.2,0-5.8c1.6-1.6,4.2-1.6,5.8,0l9.7,9.8
		c1.6,1.6,1.6,4.2,0,5.8C-307.6,344.3-308.6,344.7-309.7,344.7z"/>
</g>
</svg>
