<?xml version="1.0" encoding="utf-8"?>
<!-- Generator: Adobe Illustrator 19.0.0, SVG Export Plug-In . SVG Version: 6.00 Build 0)  -->
<svg version="1.1" id="Capa_1" xmlns="http://www.w3.org/2000/svg" xmlns:xlink="http://www.w3.org/1999/xlink" x="0px" y="0px"
	 viewBox="-408 210.7 141.3 141.3" style="enable-background:new -408 210.7 141.3 141.3;" xml:space="preserve">
<style type="text/css">
	.st0{fill:#E28749;}
	.st1{fill:#426170;}
	.st2{fill:#88C2D3;}
</style>
<g id="XMLID_52_">
	<ellipse id="XMLID_1_" class="st0" cx="-353.2" cy="284" rx="54.3" ry="53"/>
	<g id="XMLID_11_">
		<path id="XMLID_5_" class="st1" d="M-272.6,301.8c-3.1-3.2-7.2-5.3-11.5-6.1c-0.8-7.6-7.3-13.5-15.1-13.5c-1.8,0-3.5,0.3-5.1,0.9
			c-1.7-4.5-4.6-8.6-8.4-11.7c-4.9-4-11-6.1-17.3-6.1c-7.3,0-14.2,2.9-19.4,8c-0.2,0.2-0.4,0.5-0.7,0.7c-4.8,5.1-7.4,11.7-7.4,18.7
			c0,1.4-1.1,2.6-2.6,2.7c0,0,0,0,0,0c-0.1,0-0.1,0-0.2,0c0,0,0,0,0,0c-5.5,0.1-10.7,2.3-14.5,6.2c-1.5,1.5-2.7,3.1-3.6,4.9
			c-1.6,3-2.5,6.4-2.5,10c0,11.6,9.4,21,21,21h72.3c11.6,0,21-9.4,21-21C-266.7,311-268.8,305.8-272.6,301.8z"/>
		<g id="XMLID_4_">
			<g>
				<path class="st2" d="M-277,306.1c2.7,2.8,4.2,6.5,4.2,10.4c0,8.2-6.7,14.9-14.9,14.9H-360c-8.3,0-14.9-6.7-14.9-14.9
					c0-2.6,0.7-5.1,1.9-7.4c0.7-1.2,1.5-2.2,2.5-3.2c2.8-2.7,6.4-4.3,10.3-4.4c0.2,0,0.3,0,0.4,0c2.3-0.1,4.4-1,6-2.7
					c1.6-1.6,2.5-3.8,2.5-6.1c0-5.1,1.8-9.8,4.7-13.4c3.9-4.9,9.9-8,16.6-8c4.9,0,9.7,1.7,13.5,4.8c3.7,3,6.4,7.3,7.4,12
					c0.2,1,0.9,1.8,1.9,2.2c0.9,0.4,2,0.2,2.8-0.3c1.5-1.1,3.4-1.7,5.2-1.7c5,0,9.1,4.1,9.1,9.1c0,0.3,0,0.5,0,0.8
					c-0.1,0.8,0.2,1.7,0.8,2.3c0.6,0.6,1.3,1,2.2,1C-283.3,301.7-279.7,303.3-277,306.1z"/>
			</g>
			<g>
			</g>
		</g>
	</g>
</g>
</svg>
