<?xml version="1.0" encoding="iso-8859-1"?>
<!-- Generator: Adobe Illustrator 16.0.0, SVG Export Plug-In . SVG Version: 6.00 Build 0)  -->
<!DOCTYPE svg PUBLIC "-//W3C//DTD SVG 1.1//EN" "http://www.w3.org/Graphics/SVG/1.1/DTD/svg11.dtd">
<svg version="1.1" id="Capa_1" xmlns="http://www.w3.org/2000/svg" xmlns:xlink="http://www.w3.org/1999/xlink" x="0px" y="0px"
	 width="432.435px" height="432.434px" viewBox="0 0 432.435 432.434" style="enable-background:new 0 0 432.435 432.434;"
	 xml:space="preserve">
<g>
	<g>
		<g>
			<path d="M372.58,335.254H70.615c-8.07,0-14.795,6.725-14.795,14.795s6.725,14.797,14.795,14.797H372.58
				c8.07,0,14.796-6.727,14.796-14.797S381.323,335.254,372.58,335.254z"/>
			<path d="M418.312,281.452H14.795C6.725,281.452,0,288.178,0,296.249s6.725,14.795,14.795,14.795H417.64
				c8.07,0,14.795-6.725,14.795-14.795S426.382,281.452,418.312,281.452z"/>
			<path d="M34.299,258.586h364.51c8.07,0,14.797-6.727,14.797-14.797s-6.727-14.795-14.797-14.795H34.299
				c-8.07,0-14.796,6.725-14.796,14.795S26.229,258.586,34.299,258.586z"/>
			<path d="M100.207,204.783h232.695c8.069,0,14.795-6.725,14.795-14.795c0-8.07-6.726-14.796-14.795-14.796H100.207
				c-8.07,0-14.796,6.726-14.796,14.796S91.463,204.783,100.207,204.783z"/>
			<path d="M117.692,150.981h167.459c8.069,0,14.796-6.725,14.796-14.795c0-8.07-6.727-14.795-14.796-14.795H117.692
				c-8.07,0-14.796,6.725-14.796,14.795C102.896,144.256,109.622,150.981,117.692,150.981z"/>
			<path d="M168.804,97.179h64.563c8.07,0,14.795-6.726,14.795-14.796c0-8.07-6.725-14.795-14.795-14.795h-64.563
				c-8.07,0-14.795,6.725-14.795,14.795C154.009,90.454,160.734,97.179,168.804,97.179z"/>
		</g>
	</g>
</g>
<g>
</g>
<g>
</g>
<g>
</g>
<g>
</g>
<g>
</g>
<g>
</g>
<g>
</g>
<g>
</g>
<g>
</g>
<g>
</g>
<g>
</g>
<g>
</g>
<g>
</g>
<g>
</g>
<g>
</g>
</svg>
