<?xml version="1.0" encoding="utf-8"?>
<!-- Generator: Adobe Illustrator 19.0.0, SVG Export Plug-In . SVG Version: 6.00 Build 0)  -->
<svg version="1.1" id="Capa_1" xmlns="http://www.w3.org/2000/svg" xmlns:xlink="http://www.w3.org/1999/xlink" x="0px" y="0px"
	 viewBox="-408 210.7 141.3 141.3" style="enable-background:new -408 210.7 141.3 141.3;" xml:space="preserve">
<style type="text/css">
	.st0{fill:#426170;}
	.st1{fill:#7997A8;}
	.st2{fill:#88C2D3;}
</style>
<g>
	<path class="st0" d="M-274,272.6c-3.9-4-8.8-6.6-14.2-7.5c-1-9.4-9-16.7-18.7-16.7c-2.2,0-4.3,0.4-6.4,1.1
		c-2.1-5.6-5.7-10.6-10.4-14.4c-6-4.9-13.6-7.6-21.4-7.6c-9.1,0-17.6,3.5-24,9.9c-6.4,6.4-9.9,14.9-9.9,24c0,1.8-1.4,3.2-3.2,3.3
		c0,0,0,0,0,0c-0.1,0-0.2,0-0.2,0c0,0,0,0-0.1,0c-6.8,0.1-13.2,2.8-18,7.6c-4.9,4.9-7.6,11.4-7.6,18.4c0,14.3,11.7,26,26,26h10.7
		v-7.5H-382c-10.2,0-18.5-8.3-18.5-18.5c0-4.9,1.9-9.6,5.4-13.1c3.4-3.4,7.9-5.3,12.7-5.4c0.2,0,0.4,0,0.5,0
		c2.8-0.1,5.4-1.3,7.4-3.3c2-2,3-4.7,3-7.5c0-14.6,11.8-26.4,26.4-26.4c6.1,0,12,2.1,16.6,5.9c4.6,3.8,7.9,9,9.1,14.8
		c0.3,1.2,1.1,2.2,2.3,2.7c1.2,0.5,2.5,0.3,3.5-0.4c1.9-1.3,4.1-2.1,6.5-2.1c6.2,0,11.3,5.1,11.3,11.3c0,0.3,0,0.6,0,1
		c-0.1,1,0.3,2,0.9,2.8c0.7,0.8,1.7,1.2,2.7,1.3c4.8,0.2,9.3,2.1,12.7,5.6c3.4,3.5,5.2,8,5.2,12.9c0,10.2-8.3,18.5-18.5,18.5h-10.7
		v7.5h10.7c14.3,0,26-11.7,26-26C-266.7,283.9-269.3,277.5-274,272.6z"/>
	<g>
		<g>
			<path class="st1" d="M-356.8,347c-1.3,0-2.4-0.8-2.4-1.7v-22.9c0-1,1.1-1.7,2.4-1.7c1.3,0,2.4,0.8,2.4,1.7v22.9
				C-354.4,346.2-355.5,347-356.8,347z"/>
		</g>
		<g>
			<path class="st1" d="M-348.5,347c-1.3,0-2.4-0.8-2.4-1.7v-22.9c0-1,1.1-1.7,2.4-1.7c1.3,0,2.4,0.8,2.4,1.7v22.9
				C-346.1,346.2-347.1,347-348.5,347z"/>
		</g>
		<g>
			<path class="st1" d="M-340.2,347c-1.3,0-2.4-0.8-2.4-1.7v-22.9c0-1,1.1-1.7,2.4-1.7c1.3,0,2.4,0.8,2.4,1.7v22.9
				C-337.8,346.2-338.8,347-340.2,347z"/>
		</g>
		<g>
			<path class="st1" d="M-331.9,347c-1.3,0-2.4-0.8-2.4-1.7v-22.9c0-1,1.1-1.7,2.4-1.7c1.3,0,2.4,0.8,2.4,1.7v22.9
				C-329.5,346.2-330.5,347-331.9,347z"/>
		</g>
		<g>
			<path class="st1" d="M-323.6,347c-1.3,0-2.4-0.8-2.4-1.7v-22.9c0-1,1.1-1.7,2.4-1.7c1.3,0,2.4,0.8,2.4,1.7v22.9
				C-321.2,346.2-322.2,347-323.6,347z"/>
		</g>
		<g>
			<path class="st1" d="M-315.2,347c-1.3,0-2.4-0.8-2.4-1.7v-22.9c0-1,1.1-1.7,2.4-1.7c1.3,0,2.4,0.8,2.4,1.7v22.9
				C-312.8,346.2-313.9,347-315.2,347z"/>
		</g>
	</g>
</g>
<g id="XMLID_1_">
	<g id="XMLID_6_">
		<path class="st2" d="M-371.4,261.1c0-6.3,2.2-12,5.9-16.6c4.8-6,12.3-9.8,20.6-9.8c6,0,12,2.1,16.6,5.9c4.6,3.8,7.9,9,9.1,14.8
			c0.3,1.2,1.1,2.3,2.3,2.7c1.2,0.4,2.5,0.3,3.5-0.4c1.9-1.3,4.1-2.1,6.5-2.1c6.2,0,11.3,5.1,11.3,11.3c0,0.3,0,0.6,0,1
			c-0.1,1,0.3,2,0.9,2.8c0.7,0.8,1.7,1.2,2.7,1.3c4.8,0.1,9.3,2.1,12.7,5.6c3.4,3.5,5.2,8,5.2,12.9c0,10.2-8.3,18.5-18.5,18.5H-382
			c-10.2,0-18.5-8.3-18.5-18.5c0-3.2,0.8-6.3,2.4-9.1c0.8-1.4,1.8-2.8,3-4c3.4-3.4,7.9-5.3,12.8-5.4c0.2,0,0.4,0,0.4,0
			c2.8-0.1,5.4-1.3,7.4-3.3C-372.5,266.6-371.4,263.9-371.4,261.1z"/>
		<path class="st0" d="M-365.6,244.5c-3.7,4.5-5.9,10.3-5.9,16.6c0,2.8-1.1,5.5-3,7.5c-2,2-4.6,3.2-7.4,3.3c-0.1,0-0.2,0-0.4,0
			c-4.8,0.1-9.3,2-12.8,5.4c-1.2,1.2-2.2,2.5-3,4c-1.6,2.7-2.4,5.8-2.4,9.1c0,10.2,8.3,18.5,18.5,18.5h89.4
			c10.2,0,18.5-8.3,18.5-18.5c0-4.8-1.8-9.4-5.2-12.9c-3.4-3.5-7.8-5.4-12.7-5.6c-1,0-2-0.5-2.7-1.3c-0.7-0.8-1-1.8-0.9-2.8
			c0-0.3,0-0.7,0-1c0-6.2-5.1-11.3-11.3-11.3c-2.3,0-4.6,0.7-6.5,2.1c-1,0.7-2.4,0.9-3.5,0.4c-1.2-0.5-2-1.5-2.3-2.7
			c-1.3-5.8-4.5-11-9.1-14.8c-4.7-3.8-10.6-5.9-16.6-5.9C-353.3,234.7-360.7,238.5-365.6,244.5z M-369,237.1
			c6.4-6.4,14.9-9.9,24-9.9c7.8,0,15.4,2.7,21.4,7.6c4.7,3.8,8.3,8.8,10.4,14.4c2-0.7,4.2-1.1,6.4-1.1c9.6,0,17.6,7.3,18.7,16.7
			c5.4,0.9,10.4,3.5,14.2,7.5c4.7,4.9,7.3,11.3,7.3,18.1c0,14.3-11.7,26-26,26H-382c-14.3,0-26-11.7-26-26c0-4.4,1.1-8.6,3.1-12.3
			c1.2-2.2,2.7-4.2,4.5-6c4.8-4.8,11.2-7.5,18-7.6c0,0,0,0,0.1,0c0,0,0.1,0,0.2,0c0,0,0,0,0.1,0c1.8-0.1,3.2-1.5,3.2-3.3
			c0-8.7,3.2-16.8,9.1-23.1C-369.6,237.7-369.3,237.4-369,237.1z"/>
	</g>
	<g id="XMLID_7_">
	</g>
</g>
</svg>
