<?xml version="1.0" encoding="iso-8859-1"?>
<!-- Generator: Adobe Illustrator 18.0.0, SVG Export Plug-In . SVG Version: 6.00 Build 0)  -->
<!DOCTYPE svg PUBLIC "-//W3C//DTD SVG 1.1//EN" "http://www.w3.org/Graphics/SVG/1.1/DTD/svg11.dtd">
<svg version="1.1" id="Capa_1" xmlns="http://www.w3.org/2000/svg" xmlns:xlink="http://www.w3.org/1999/xlink" x="0px" y="0px"
	 viewBox="0 0 150.221 150.221" style="enable-background:new 0 0 150.221 150.221;" xml:space="preserve">
<g>
	<path style="fill:#E28749;" d="M47.036,33.147c-5.892,6.305-9.122,14.479-9.122,23.148c0,1.782-1.388,3.225-3.164,3.296
		c-0.016,0-0.031,0-0.046,0.001c-0.07,0.002-0.176,0.002-0.195,0c-0.02,0-0.038,0.002-0.058,0.002
		c-6.784,0.103-13.168,2.803-17.971,7.608c-1.812,1.814-3.324,3.849-4.509,6.044C4.755,68.428,0,60.206,0,50.881
		c0-14.835,12.025-26.858,26.858-26.858C34.897,24.022,42.111,27.551,47.036,33.147z"/>
	<g>
		<path style="fill:#426170;" d="M142.88,66.457c-3.879-3.996-8.839-6.598-14.236-7.517c-1.046-9.38-9.022-16.695-18.677-16.695
			c-2.189,0-4.331,0.375-6.35,1.101c-2.11-5.597-5.693-10.602-10.378-14.412c-6.02-4.896-13.617-7.593-21.392-7.593
			c-9.064,0-17.585,3.529-23.995,9.938c-6.409,6.41-9.938,14.931-9.938,23.995c0,1.782-1.388,3.226-3.164,3.296
			c-0.016,0.001-0.031,0.001-0.046,0.001c-0.07,0.001-0.176,0.001-0.195,0.001s-0.038,0-0.058,0
			c-6.784,0.104-13.167,2.805-17.972,7.609c-4.906,4.909-7.607,11.44-7.607,18.384c0,14.336,11.656,25.997,25.983,25.997h10.719
			v-7.52H34.855c-10.182,0-18.466-8.288-18.466-18.478c0-4.937,1.919-9.578,5.405-13.064c3.408-3.408,7.933-5.328,12.743-5.408
			c0.241,0,0.369-0.003,0.456-0.006c2.809-0.098,5.431-1.263,7.388-3.287c1.967-2.028,3.049-4.701,3.049-7.525
			c0-14.565,11.85-26.415,26.417-26.415c6.052,0,11.966,2.098,16.648,5.908c4.623,3.758,7.87,9.011,9.145,14.788
			c0.271,1.229,1.138,2.241,2.313,2.695c1.173,0.455,2.495,0.292,3.525-0.434c1.903-1.344,4.148-2.054,6.488-2.054
			c6.218,0,11.276,5.058,11.276,11.277c0,0.317-0.015,0.647-0.043,0.979c-0.087,1.03,0.25,2.049,0.938,2.82
			c0.685,0.771,1.658,1.228,2.689,1.26c4.807,0.15,9.303,2.138,12.66,5.598c3.364,3.466,5.217,8.036,5.217,12.868
			c0,10.189-8.285,18.478-18.468,18.478h-10.717v7.52h10.717c14.328,0,25.984-11.661,25.984-25.997
			C150.221,77.766,147.614,71.333,142.88,66.457z"/>
		<g>
			<g>
				<path style="fill:#7997A8;" d="M58.095,128.88c-1.325,0-2.399-1.075-2.399-2.399V94.636c0-1.326,1.074-2.401,2.399-2.401
					s2.399,1.075,2.399,2.401v31.845C60.494,127.805,59.42,128.88,58.095,128.88z"/>
			</g>
			<g>
				<path style="fill:#7997A8;" d="M66.401,128.88c-1.326,0-2.399-1.075-2.399-2.399V94.636c0-1.326,1.073-2.401,2.399-2.401
					c1.325,0,2.399,1.075,2.399,2.401v31.845C68.801,127.805,67.727,128.88,66.401,128.88z"/>
			</g>
			<g>
				<path style="fill:#7997A8;" d="M74.708,128.88c-1.327,0-2.402-1.075-2.402-2.399V94.636c0-1.326,1.075-2.401,2.402-2.401
					c1.324,0,2.398,1.075,2.398,2.401v31.845C77.106,127.805,76.032,128.88,74.708,128.88z"/>
			</g>
			<g>
				<path style="fill:#7997A8;" d="M83.012,128.88c-1.324,0-2.399-1.075-2.399-2.399V94.636c0-1.326,1.075-2.401,2.399-2.401
					c1.327,0,2.399,1.075,2.399,2.401v31.845C85.411,127.805,84.339,128.88,83.012,128.88z"/>
			</g>
			<g>
				<path style="fill:#7997A8;" d="M91.317,128.88c-1.324,0-2.398-1.075-2.398-2.399V94.636c0-1.326,1.074-2.401,2.398-2.401
					c1.327,0,2.4,1.075,2.4,2.401v31.845C93.718,127.805,92.644,128.88,91.317,128.88z"/>
			</g>
			<g>
				<path style="fill:#7997A8;" d="M99.624,128.88c-1.324,0-2.398-1.075-2.398-2.399V94.636c0-1.326,1.074-2.401,2.398-2.401
					c1.325,0,2.399,1.075,2.399,2.401v31.845C102.023,127.805,100.949,128.88,99.624,128.88z"/>
			</g>
		</g>
	</g>
</g>
<g>
</g>
<g>
</g>
<g>
</g>
<g>
</g>
<g>
</g>
<g>
</g>
<g>
</g>
<g>
</g>
<g>
</g>
<g>
</g>
<g>
</g>
<g>
</g>
<g>
</g>
<g>
</g>
<g>
</g>
</svg>
