<?xml version="1.0" encoding="iso-8859-1"?>
<!-- Generator: Adobe Illustrator 18.0.0, SVG Export Plug-In . SVG Version: 6.00 Build 0)  -->
<!DOCTYPE svg PUBLIC "-//W3C//DTD SVG 1.1//EN" "http://www.w3.org/Graphics/SVG/1.1/DTD/svg11.dtd">
<svg version="1.1" id="Capa_1" xmlns="http://www.w3.org/2000/svg" xmlns:xlink="http://www.w3.org/1999/xlink" x="0px" y="0px"
	 viewBox="0 0 141.35 141.35" style="enable-background:new 0 0 141.35 141.35;" xml:space="preserve">
<g>
	<g>
		<path style="fill:#7997A8;" d="M55.823,118.402c-1.068,0-2.134-0.411-2.944-1.238l-9.69-9.839
			c-1.602-1.621-1.581-4.242,0.047-5.848c1.626-1.602,4.243-1.583,5.844,0.043l9.693,9.847c1.6,1.625,1.58,4.241-0.044,5.846
			C57.921,118.003,56.87,118.402,55.823,118.402z"/>
		<path style="fill:#7997A8;" d="M64.802,99.577c-1.062,0-2.135-0.411-2.944-1.238l-9.688-9.845
			c-1.604-1.622-1.581-4.244,0.042-5.85c1.628-1.602,4.25-1.583,5.851,0.044l9.69,9.85c1.602,1.626,1.579,4.244-0.047,5.85
			C66.899,99.178,65.853,99.577,64.802,99.577z"/>
		<path style="fill:#7997A8;" d="M92.163,118.402c-1.069,0-2.135-0.411-2.947-1.238l-9.684-9.839
			c-1.604-1.621-1.589-4.242,0.042-5.848c1.624-1.602,4.246-1.583,5.846,0.043l9.691,9.847c1.603,1.625,1.586,4.241-0.046,5.846
			C94.263,118.003,93.212,118.402,92.163,118.402z"/>
	</g>
	<path style="fill:#426170;" d="M134.009,68.068c-3.878-3.996-8.839-6.597-14.236-7.517c-1.047-9.382-9.022-16.697-18.676-16.697
		c-2.191,0-4.332,0.374-6.353,1.099c-2.108-5.595-5.691-10.602-10.375-14.41c-6.021-4.896-13.619-7.594-21.393-7.594
		c-9.064,0-17.584,3.529-23.994,9.938c-6.41,6.41-9.939,14.93-9.939,23.995c0,1.783-1.389,3.227-3.163,3.297
		c-0.015,0.001-0.032,0.002-0.047,0.002c-0.071,0.001-0.175,0.001-0.195,0.001c-0.018,0-0.037,0-0.057,0
		c-6.785,0.104-13.168,2.805-17.972,7.609C2.702,72.702,0,79.231,0,86.177c0,14.334,11.657,25.992,25.985,25.992h10.718v-7.518
		H25.985c-10.183,0-18.467-8.288-18.467-18.475c0-4.938,1.919-9.578,5.405-13.067c3.408-3.407,7.934-5.328,12.744-5.407
		c0.241,0,0.369-0.003,0.456-0.006c2.806-0.097,5.431-1.264,7.388-3.285c1.966-2.03,3.048-4.704,3.048-7.529
		c0-14.565,11.85-26.416,26.416-26.416c6.052,0,11.965,2.098,16.65,5.908c4.621,3.758,7.868,9.011,9.142,14.789
		c0.271,1.229,1.14,2.24,2.313,2.695c1.173,0.453,2.496,0.291,3.525-0.433c1.904-1.345,4.148-2.054,6.49-2.054
		c6.217,0,11.275,5.059,11.275,11.279c0,0.318-0.014,0.648-0.042,0.979c-0.089,1.028,0.25,2.049,0.936,2.821
		c0.687,0.771,1.659,1.226,2.691,1.259c4.807,0.149,9.302,2.138,12.66,5.596c3.364,3.467,5.216,8.037,5.216,12.871
		c0,10.187-8.284,18.475-18.467,18.475h-10.718v7.518h10.718c14.328,0,25.984-11.658,25.984-25.992
		C141.35,79.375,138.744,72.945,134.009,68.068z"/>
</g>
<g>
</g>
<g>
</g>
<g>
</g>
<g>
</g>
<g>
</g>
<g>
</g>
<g>
</g>
<g>
</g>
<g>
</g>
<g>
</g>
<g>
</g>
<g>
</g>
<g>
</g>
<g>
</g>
<g>
</g>
</svg>
