<?xml version="1.0" encoding="iso-8859-1"?>
<!-- Generator: Adobe Illustrator 18.0.0, SVG Export Plug-In . SVG Version: 6.00 Build 0)  -->
<!DOCTYPE svg PUBLIC "-//W3C//DTD SVG 1.1//EN" "http://www.w3.org/Graphics/SVG/1.1/DTD/svg11.dtd">
<svg version="1.1" id="Capa_1" xmlns="http://www.w3.org/2000/svg" xmlns:xlink="http://www.w3.org/1999/xlink" x="0px" y="0px"
	 viewBox="0 0 141.349 141.349" style="enable-background:new 0 0 141.349 141.349;" xml:space="preserve">
<g>
	<path style="fill:#426170;" d="M134.008,67.809c-3.879-3.994-8.839-6.594-14.235-7.513c-1.046-9.379-9.024-16.695-18.677-16.695
		c-2.191,0-4.332,0.375-6.351,1.1c-2.109-5.595-5.693-10.602-10.376-14.411c-6.021-4.896-13.619-7.593-21.393-7.593
		c-9.064,0-17.585,3.53-23.994,9.938c-6.41,6.41-9.94,14.932-9.94,23.995c0,1.782-1.387,3.227-3.163,3.296
		c-0.015,0-0.031,0.001-0.046,0.001c-0.071,0.001-0.175,0.001-0.196,0.001c-0.019,0-0.038,0-0.057,0
		c-6.785,0.104-13.167,2.805-17.972,7.606C2.702,72.441,0,78.967,0,85.908c0,14.328,11.656,25.984,25.984,25.984h10.718v-7.517
		H25.984c-10.183,0-18.467-8.284-18.467-18.468c0-4.934,1.919-9.572,5.406-13.06c3.408-3.406,7.932-5.325,12.743-5.404
		c0.241,0,0.37-0.003,0.456-0.007c2.808-0.096,5.432-1.263,7.389-3.283c1.965-2.028,3.047-4.7,3.047-7.525
		c0-14.565,11.85-26.415,26.417-26.415c6.051,0,11.965,2.098,16.65,5.908c4.622,3.758,7.868,9.01,9.143,14.788
		c0.271,1.229,1.138,2.241,2.313,2.695c1.172,0.455,2.496,0.293,3.524-0.433c1.904-1.344,4.148-2.055,6.49-2.055
		c6.217,0,11.275,5.059,11.275,11.276c0,0.317-0.015,0.647-0.043,0.979c-0.088,1.027,0.251,2.047,0.938,2.818
		c0.685,0.771,1.659,1.226,2.69,1.26c4.807,0.149,9.302,2.136,12.659,5.594c3.364,3.464,5.217,8.031,5.217,12.862
		c0,10.184-8.284,18.468-18.468,18.468h-10.717v7.517h10.717c14.329,0,25.984-11.656,25.984-25.984
		C141.349,79.112,138.742,72.684,134.008,67.809z"/>
	<g>
		<path style="fill:#BCAB22;" d="M62.171,96.939c0-0.028,0-0.058,0.002-0.087c0.002-0.017,0.002-0.031,0.006-0.046
			c0-0.015,0-0.03,0.001-0.045c0.003-0.021,0.005-0.037,0.008-0.056c0.001-0.012,0.001-0.023,0.005-0.035
			c0.001-0.019,0.006-0.039,0.008-0.059c0.002-0.011,0.005-0.02,0.006-0.03c0.002-0.02,0.008-0.038,0.013-0.06
			c0.001-0.011,0.003-0.019,0.005-0.028c0.005-0.019,0.012-0.038,0.017-0.057c0.001-0.011,0.004-0.021,0.009-0.032
			c0.005-0.018,0.009-0.035,0.015-0.052c0.006-0.013,0.008-0.024,0.012-0.035c0.006-0.017,0.01-0.032,0.019-0.048
			c0.003-0.013,0.009-0.026,0.015-0.038c0.004-0.014,0.011-0.028,0.014-0.042c0.008-0.014,0.015-0.029,0.021-0.044
			c0.007-0.012,0.011-0.022,0.017-0.033c0.009-0.017,0.018-0.033,0.025-0.049c0.007-0.01,0.01-0.021,0.016-0.028
			c0.008-0.019,0.021-0.035,0.029-0.052c0.006-0.009,0.011-0.016,0.017-0.027c0.012-0.015,0.021-0.031,0.031-0.05
			c0.007-0.008,0.011-0.017,0.018-0.024c0.011-0.018,0.023-0.033,0.034-0.049c0.008-0.009,0.016-0.019,0.024-0.028
			c0.011-0.014,0.02-0.027,0.032-0.043c0.01-0.013,0.021-0.022,0.03-0.037c0.011-0.011,0.02-0.021,0.028-0.031
			c0.021-0.022,0.043-0.046,0.066-0.067l0,0c0.019-0.021,0.041-0.043,0.067-0.063c0.009-0.008,0.022-0.02,0.032-0.028
			c0.013-0.01,0.025-0.021,0.035-0.03c0.014-0.013,0.031-0.024,0.043-0.034c0.011-0.007,0.02-0.015,0.028-0.021
			c0.017-0.014,0.033-0.025,0.049-0.036c0.008-0.006,0.017-0.011,0.023-0.015c0.019-0.014,0.036-0.026,0.055-0.034
			c0.005-0.008,0.015-0.011,0.024-0.016c0.017-0.012,0.034-0.021,0.05-0.03c0.01-0.006,0.019-0.009,0.029-0.016
			c0.016-0.009,0.033-0.017,0.05-0.025c0.011-0.006,0.022-0.012,0.032-0.016c0.016-0.009,0.03-0.015,0.045-0.021
			c0.013-0.007,0.024-0.012,0.04-0.017c0.013-0.005,0.027-0.011,0.042-0.017c0.017-0.005,0.03-0.011,0.044-0.017
			c0.014-0.005,0.025-0.008,0.038-0.012c0.014-0.008,0.031-0.013,0.05-0.017c0.012-0.003,0.023-0.007,0.035-0.012
			c0.017-0.003,0.035-0.01,0.052-0.015c0.013-0.001,0.026-0.003,0.034-0.006c0.021-0.004,0.039-0.008,0.056-0.013
			c0.011-0.003,0.024-0.003,0.036-0.006c0.018-0.003,0.036-0.006,0.056-0.01c0.011-0.002,0.024-0.003,0.038-0.004
			c0.016-0.003,0.034-0.006,0.052-0.007c0.018-0.001,0.036-0.005,0.055-0.005c0.011,0,0.022,0,0.033-0.002
			c0.033-0.002,0.066-0.002,0.097-0.002h10.177c1.027,0,1.863,0.833,1.863,1.86c0,1.029-0.835,1.863-1.863,1.863h-5.685
			l10.104,10.104l0,0c0.023,0.021,0.045,0.042,0.063,0.066c0.012,0.011,0.019,0.021,0.028,0.032
			c0.008,0.012,0.021,0.025,0.032,0.035c0.011,0.015,0.023,0.029,0.034,0.044c0.006,0.01,0.014,0.02,0.021,0.028
			c0.013,0.018,0.025,0.032,0.036,0.049c0.004,0.009,0.012,0.016,0.016,0.025c0.011,0.016,0.024,0.033,0.033,0.052
			c0.007,0.007,0.012,0.016,0.019,0.025c0.008,0.016,0.016,0.032,0.025,0.048c0.007,0.012,0.013,0.021,0.016,0.031
			c0.01,0.017,0.02,0.031,0.026,0.048c0.005,0.013,0.011,0.023,0.017,0.035c0.007,0.014,0.013,0.029,0.021,0.044
			c0.006,0.013,0.012,0.026,0.016,0.041c0.006,0.013,0.012,0.027,0.016,0.039c0.005,0.016,0.012,0.031,0.018,0.047
			c0.002,0.011,0.008,0.022,0.01,0.034c0.007,0.02,0.012,0.036,0.02,0.052c0.001,0.013,0.003,0.022,0.009,0.033
			c0.005,0.018,0.008,0.037,0.014,0.059c0.001,0.008,0.006,0.018,0.007,0.027c0.005,0.019,0.008,0.038,0.012,0.059
			c0.002,0.011,0.004,0.021,0.006,0.028c0.003,0.022,0.009,0.041,0.01,0.062c0.001,0.011,0.002,0.023,0.005,0.033
			c0.002,0.02,0.004,0.038,0.006,0.057c0,0.015,0.003,0.032,0.003,0.046c0.002,0.015,0.002,0.028,0.002,0.045
			c0.002,0.028,0.002,0.058,0.002,0.085c0,0.002,0,0.006,0,0.007v0.005c0,0.029,0,0.06-0.002,0.088c0,0.014,0,0.029-0.002,0.044
			c0,0.016-0.003,0.03-0.003,0.045c-0.002,0.019-0.004,0.04-0.006,0.056c-0.003,0.013-0.004,0.023-0.005,0.034
			c-0.001,0.021-0.007,0.039-0.01,0.06c-0.002,0.011-0.004,0.021-0.006,0.03c-0.004,0.02-0.007,0.039-0.012,0.06
			c-0.001,0.008-0.006,0.019-0.007,0.028c-0.006,0.019-0.009,0.037-0.014,0.058c-0.006,0.011-0.008,0.021-0.009,0.03
			c-0.007,0.019-0.012,0.036-0.02,0.052c-0.002,0.012-0.008,0.024-0.01,0.036c-0.006,0.016-0.013,0.032-0.018,0.048
			c-0.004,0.014-0.01,0.026-0.016,0.038c-0.004,0.015-0.01,0.027-0.016,0.041c-0.007,0.016-0.013,0.031-0.021,0.045
			c-0.006,0.011-0.012,0.023-0.017,0.033c-0.007,0.017-0.016,0.032-0.026,0.049c-0.003,0.009-0.009,0.021-0.016,0.028
			c-0.009,0.018-0.017,0.035-0.025,0.052c-0.007,0.008-0.012,0.018-0.019,0.026c-0.009,0.018-0.021,0.032-0.033,0.051
			c-0.004,0.007-0.012,0.017-0.016,0.024c-0.01,0.017-0.022,0.033-0.036,0.049c-0.007,0.009-0.015,0.02-0.021,0.028
			c-0.01,0.014-0.022,0.028-0.034,0.042c-0.011,0.013-0.024,0.023-0.032,0.037c-0.009,0.012-0.016,0.021-0.028,0.032
			c-0.018,0.023-0.039,0.046-0.063,0.066l0,0c-0.022,0.021-0.043,0.045-0.066,0.065c-0.01,0.009-0.022,0.019-0.034,0.027
			c-0.011,0.011-0.024,0.021-0.034,0.03c-0.017,0.012-0.03,0.024-0.043,0.035c-0.009,0.008-0.02,0.014-0.027,0.021
			c-0.019,0.014-0.036,0.023-0.051,0.035c-0.01,0.007-0.017,0.012-0.025,0.018c-0.016,0.011-0.034,0.022-0.051,0.034
			c-0.008,0.004-0.016,0.01-0.026,0.015c-0.016,0.011-0.032,0.021-0.05,0.03c-0.01,0.005-0.02,0.009-0.03,0.015
			c-0.014,0.009-0.031,0.017-0.048,0.025c-0.009,0.006-0.022,0.012-0.031,0.016c-0.016,0.007-0.031,0.013-0.049,0.021
			c-0.009,0.006-0.024,0.012-0.036,0.017c-0.014,0.007-0.028,0.011-0.042,0.017c-0.015,0.005-0.029,0.012-0.044,0.017
			c-0.012,0.005-0.023,0.009-0.038,0.013c-0.014,0.006-0.035,0.012-0.05,0.017c-0.012,0.003-0.023,0.006-0.032,0.01
			c-0.02,0.005-0.039,0.009-0.058,0.015c-0.009,0.003-0.02,0.006-0.029,0.008c-0.021,0.003-0.04,0.007-0.059,0.012
			c-0.01,0.002-0.021,0.004-0.03,0.007c-0.019,0.002-0.038,0.005-0.06,0.009c-0.011,0.001-0.023,0.002-0.035,0.004
			c-0.02,0.003-0.036,0.005-0.052,0.006c-0.017,0.003-0.035,0.003-0.05,0.006c-0.014,0-0.027,0.002-0.041,0.002
			c-0.031,0.001-0.064,0.003-0.093,0.003h-3.697l2.832,4.235c0.676,1.07,1.265,2.035,1.064,2.295
			c-0.156,0.197-1.364-0.51-1.799-0.895l-7.912-6.183l0,0c-0.019-0.021-0.041-0.043-0.062-0.066
			c-0.009-0.011-0.017-0.021-0.029-0.032c-0.008-0.014-0.021-0.024-0.03-0.037c-0.012-0.014-0.023-0.028-0.035-0.042
			c-0.007-0.009-0.012-0.02-0.02-0.028c-0.013-0.016-0.024-0.032-0.035-0.049c-0.006-0.008-0.012-0.018-0.018-0.024
			c-0.011-0.018-0.022-0.033-0.034-0.051c-0.006-0.009-0.012-0.019-0.014-0.026c-0.009-0.017-0.021-0.034-0.029-0.052
			c-0.006-0.008-0.013-0.02-0.016-0.028c-0.011-0.017-0.019-0.032-0.025-0.049c-0.006-0.01-0.013-0.022-0.017-0.033
			c-0.007-0.014-0.015-0.029-0.021-0.045c-0.005-0.014-0.011-0.026-0.017-0.041c-0.006-0.012-0.011-0.024-0.017-0.039
			c-0.006-0.015-0.011-0.031-0.015-0.047c-0.006-0.012-0.011-0.024-0.014-0.036c-0.005-0.016-0.011-0.033-0.016-0.052
			c-0.003-0.009-0.006-0.02-0.01-0.03c-0.003-0.021-0.009-0.039-0.012-0.058c-0.005-0.01-0.005-0.021-0.007-0.028
			c-0.005-0.021-0.011-0.04-0.015-0.06c-0.003-0.01-0.005-0.02-0.005-0.03c-0.006-0.021-0.007-0.039-0.009-0.06
			c-0.003-0.011-0.006-0.021-0.006-0.034c-0.002-0.016-0.005-0.037-0.005-0.056c-0.003-0.015-0.003-0.029-0.006-0.045
			c0-0.015-0.002-0.03-0.002-0.044c-0.001-0.028-0.001-0.059-0.001-0.088v-0.005c0-0.001,0-0.005,0-0.007
			c0-0.027,0-0.057,0.001-0.085c0-0.017,0.002-0.03,0.002-0.045c0.003-0.014,0.003-0.031,0.006-0.046
			c0-0.019,0.003-0.037,0.005-0.057c0-0.01,0.003-0.022,0.006-0.033c0.003-0.021,0.004-0.039,0.009-0.062
			c0-0.008,0.002-0.018,0.005-0.028c0.003-0.021,0.009-0.039,0.015-0.059c0.002-0.01,0.002-0.02,0.007-0.027
			c0.003-0.021,0.009-0.041,0.012-0.059c0.004-0.011,0.007-0.021,0.01-0.033c0.005-0.016,0.011-0.032,0.016-0.052
			c0.003-0.012,0.008-0.023,0.014-0.034c0.004-0.016,0.009-0.031,0.015-0.047c0.006-0.012,0.011-0.026,0.017-0.039
			c0.005-0.015,0.011-0.028,0.017-0.041c0.006-0.015,0.014-0.03,0.021-0.044c0.004-0.012,0.011-0.022,0.017-0.035
			c0.006-0.017,0.015-0.031,0.025-0.048c0.003-0.01,0.009-0.02,0.016-0.031c0.009-0.016,0.02-0.032,0.029-0.048
			c0.002-0.01,0.008-0.019,0.014-0.025c0.012-0.018,0.023-0.036,0.034-0.052c0.005-0.01,0.011-0.017,0.018-0.025
			c0.011-0.017,0.022-0.031,0.035-0.049c0.007-0.009,0.012-0.018,0.02-0.028c0.012-0.015,0.023-0.029,0.035-0.044
			c0.009-0.01,0.021-0.023,0.03-0.035c0.013-0.011,0.02-0.021,0.029-0.032c0.021-0.024,0.042-0.046,0.062-0.066l0,0
			c0.024-0.024,0.049-0.044,0.068-0.065c0.011-0.009,0.021-0.019,0.034-0.028c0.013-0.01,0.022-0.022,0.035-0.03
			c0.016-0.013,0.031-0.023,0.045-0.035c0.01-0.008,0.021-0.015,0.028-0.021c0.015-0.012,0.032-0.024,0.048-0.036
			c0.008-0.005,0.016-0.011,0.026-0.016c0.017-0.012,0.035-0.023,0.051-0.035c0.008-0.004,0.016-0.009,0.024-0.015
			c0.017-0.011,0.034-0.021,0.053-0.029c0.01-0.005,0.017-0.01,0.027-0.016c0.016-0.008,0.032-0.016,0.05-0.026
			c0.01-0.003,0.02-0.01,0.032-0.015c0.016-0.008,0.03-0.016,0.046-0.022c0.015-0.004,0.025-0.01,0.04-0.015
			c0.014-0.007,0.028-0.011,0.043-0.019c0.012-0.004,0.028-0.01,0.043-0.015c0.01-0.006,0.024-0.009,0.038-0.013
			c0.016-0.006,0.032-0.012,0.048-0.018c0.01-0.002,0.022-0.006,0.034-0.009c0.018-0.005,0.038-0.011,0.055-0.015
			c0.011-0.004,0.021-0.005,0.033-0.008c0.018-0.004,0.038-0.01,0.056-0.012c0.011-0.004,0.024-0.006,0.034-0.008
			c0.02-0.001,0.037-0.005,0.056-0.007c0.012-0.004,0.025-0.005,0.04-0.008c0.015,0,0.031-0.004,0.05-0.006
			c0.016,0,0.038-0.002,0.054-0.006c0.013,0,0.024,0,0.036,0c0.031-0.001,0.062-0.002,0.094-0.002h3.695L62.718,98.261l0,0
			c-0.023-0.022-0.044-0.045-0.066-0.068c-0.009-0.01-0.017-0.021-0.028-0.031c-0.009-0.014-0.02-0.026-0.03-0.037
			c-0.012-0.014-0.021-0.028-0.032-0.043c-0.008-0.011-0.017-0.02-0.024-0.028c-0.011-0.016-0.022-0.032-0.034-0.049
			c-0.007-0.008-0.011-0.017-0.018-0.026c-0.01-0.016-0.02-0.031-0.031-0.051c-0.005-0.007-0.01-0.016-0.017-0.025
			c-0.008-0.016-0.021-0.032-0.029-0.05c-0.006-0.01-0.009-0.019-0.016-0.029c-0.007-0.016-0.016-0.031-0.025-0.049
			c-0.006-0.011-0.01-0.02-0.017-0.034c-0.006-0.013-0.013-0.028-0.021-0.043c-0.003-0.015-0.01-0.028-0.014-0.04
			c-0.006-0.016-0.012-0.028-0.015-0.039c-0.009-0.018-0.013-0.034-0.019-0.048c-0.004-0.011-0.006-0.023-0.012-0.036
			c-0.006-0.016-0.01-0.035-0.015-0.051c-0.005-0.012-0.008-0.022-0.009-0.032c-0.005-0.019-0.012-0.037-0.017-0.058
			c-0.002-0.009-0.004-0.018-0.005-0.029c-0.005-0.02-0.011-0.038-0.013-0.059c-0.001-0.01-0.004-0.021-0.006-0.029
			c-0.002-0.02-0.007-0.041-0.008-0.061c-0.004-0.011-0.004-0.022-0.005-0.032c-0.003-0.021-0.005-0.039-0.008-0.058
			c-0.001-0.014-0.001-0.029-0.001-0.046c-0.004-0.015-0.004-0.029-0.006-0.045c-0.002-0.028-0.002-0.057-0.002-0.086
			c0,0,0-0.002,0-0.007C62.171,96.94,62.171,96.94,62.171,96.939z"/>
		<path style="fill:#7997A8;" d="M59.851,105.359h-5.299l3.748-3.747c0.331-0.331,0.331-0.867,0-1.198
			c-0.332-0.332-0.869-0.332-1.199,0l-3.748,3.746v-5.298c0-0.47-0.379-0.849-0.847-0.849s-0.848,0.379-0.848,0.849v5.298
			l-3.747-3.746c-0.332-0.332-0.868-0.332-1.199,0c-0.33,0.331-0.33,0.867,0,1.198l3.748,3.747H45.16
			c-0.468,0-0.848,0.379-0.848,0.849c0,0.467,0.38,0.847,0.848,0.847h5.299l-3.748,3.747c-0.33,0.331-0.33,0.868,0,1.198
			c0.165,0.166,0.382,0.249,0.599,0.249c0.218,0,0.434-0.083,0.6-0.249l3.747-3.746v5.299c0,0.468,0.38,0.848,0.848,0.848
			s0.847-0.38,0.847-0.848v-5.299L57.1,112c0.165,0.166,0.382,0.249,0.599,0.249c0.217,0,0.434-0.083,0.6-0.249
			c0.331-0.33,0.331-0.867,0-1.198l-3.748-3.747h5.299c0.468,0,0.847-0.38,0.847-0.847
			C60.698,105.738,60.318,105.359,59.851,105.359z"/>
		<path style="fill:#7997A8;" d="M94.626,105.359h-5.298l3.747-3.747c0.332-0.331,0.332-0.867,0-1.198
			c-0.331-0.332-0.867-0.332-1.199,0l-3.747,3.746v-5.298c0-0.47-0.38-0.849-0.848-0.849c-0.467,0-0.848,0.379-0.848,0.849v5.298
			l-3.747-3.746c-0.331-0.332-0.868-0.332-1.199,0c-0.331,0.331-0.331,0.867,0,1.198l3.747,3.747h-5.299
			c-0.468,0-0.847,0.379-0.847,0.849c0,0.467,0.379,0.847,0.847,0.847h5.299l-3.747,3.747c-0.331,0.331-0.331,0.868,0,1.198
			c0.165,0.166,0.382,0.249,0.599,0.249c0.217,0,0.435-0.083,0.6-0.249l3.747-3.746v5.299c0,0.468,0.38,0.848,0.848,0.848
			c0.468,0,0.848-0.38,0.848-0.848v-5.299L91.876,112c0.166,0.166,0.382,0.249,0.6,0.249c0.217,0,0.434-0.083,0.599-0.249
			c0.332-0.33,0.332-0.867,0-1.198l-3.747-3.747h5.298c0.468,0,0.848-0.38,0.848-0.847
			C95.475,105.738,95.095,105.359,94.626,105.359z"/>
	</g>
</g>
<g>
</g>
<g>
</g>
<g>
</g>
<g>
</g>
<g>
</g>
<g>
</g>
<g>
</g>
<g>
</g>
<g>
</g>
<g>
</g>
<g>
</g>
<g>
</g>
<g>
</g>
<g>
</g>
<g>
</g>
</svg>
