<?xml version="1.0" encoding="iso-8859-1"?>
<!-- Generator: Adobe Illustrator 18.0.0, SVG Export Plug-In . SVG Version: 6.00 Build 0)  -->
<!DOCTYPE svg PUBLIC "-//W3C//DTD SVG 1.1//EN" "http://www.w3.org/Graphics/SVG/1.1/DTD/svg11.dtd">
<svg version="1.1" id="Capa_1" xmlns="http://www.w3.org/2000/svg" xmlns:xlink="http://www.w3.org/1999/xlink" x="0px" y="0px"
	 viewBox="0 0 141.349 141.349" style="enable-background:new 0 0 141.349 141.349;" xml:space="preserve">
<g>
	<path style="fill:#426170;" d="M134.008,61.091c-3.879-3.994-8.839-6.593-14.235-7.514c-1.046-9.379-9.024-16.695-18.677-16.695
		c-2.191,0-4.332,0.374-6.351,1.1c-2.109-5.595-5.693-10.603-10.376-14.41c-6.021-4.896-13.619-7.593-21.393-7.593
		c-9.064,0-17.585,3.528-23.994,9.939c-6.41,6.409-9.94,14.93-9.94,23.994c0,1.781-1.387,3.225-3.163,3.296
		c-0.015,0.001-0.031,0.001-0.046,0.001c-0.071,0.002-0.175,0.002-0.196,0.001c-0.019,0-0.038,0.001-0.057,0.001
		c-6.785,0.102-13.167,2.803-17.972,7.604C2.702,65.723,0,72.249,0,79.19c0,14.328,11.656,25.985,25.984,25.985h10.718v-7.519
		H25.984c-10.183,0-18.467-8.284-18.467-18.467c0-4.935,1.919-9.573,5.406-13.06c3.408-3.407,7.932-5.325,12.743-5.404
		c0.241,0,0.37-0.003,0.456-0.007c2.808-0.097,5.432-1.262,7.389-3.284c1.965-2.027,3.047-4.7,3.047-7.524
		c0-14.565,11.85-26.415,26.417-26.415c6.051,0,11.965,2.098,16.65,5.907c4.622,3.759,7.868,9.012,9.143,14.79
		c0.271,1.228,1.138,2.239,2.313,2.694c1.172,0.454,2.496,0.291,3.524-0.434c1.904-1.344,4.148-2.055,6.49-2.055
		c6.217,0,11.275,5.059,11.275,11.277c0,0.316-0.015,0.646-0.043,0.979c-0.088,1.028,0.251,2.047,0.938,2.818
		c0.685,0.773,1.659,1.228,2.69,1.26c4.807,0.15,9.302,2.137,12.659,5.594c3.364,3.465,5.217,8.033,5.217,12.863
		c0,10.183-8.284,18.467-18.468,18.467h-10.717v7.519h10.717c14.329,0,25.984-11.657,25.984-25.985
		C141.349,72.393,138.742,65.966,134.008,61.091z"/>
	<path style="fill:#BCAB22;" d="M51.793,82.96c0-0.056,0-0.112,0.002-0.17c0.004-0.032,0.004-0.059,0.011-0.088
		c0-0.03,0-0.061,0.001-0.09c0.006-0.038,0.011-0.072,0.017-0.11c0.002-0.021,0.002-0.044,0.01-0.066
		c0.003-0.039,0.014-0.077,0.015-0.115c0.005-0.021,0.011-0.039,0.013-0.059c0.004-0.038,0.016-0.077,0.026-0.117
		c0.002-0.019,0.004-0.036,0.008-0.056c0.011-0.038,0.024-0.074,0.036-0.11c0.002-0.021,0.006-0.042,0.016-0.063
		c0.012-0.036,0.018-0.068,0.031-0.102c0.01-0.023,0.014-0.048,0.023-0.068c0.011-0.033,0.02-0.062,0.038-0.092
		c0.006-0.027,0.017-0.053,0.03-0.075c0.006-0.027,0.021-0.055,0.028-0.081c0.015-0.028,0.028-0.059,0.041-0.087
		c0.013-0.024,0.021-0.046,0.033-0.068c0.018-0.03,0.035-0.063,0.049-0.093c0.014-0.02,0.02-0.039,0.034-0.057
		c0.015-0.035,0.039-0.067,0.057-0.1c0.011-0.016,0.023-0.031,0.03-0.053c0.024-0.031,0.042-0.063,0.063-0.098
		c0.013-0.018,0.021-0.032,0.034-0.05c0.021-0.031,0.043-0.063,0.065-0.094c0.017-0.017,0.034-0.036,0.049-0.056
		c0.021-0.026,0.039-0.054,0.063-0.084c0.019-0.024,0.042-0.045,0.061-0.07c0.021-0.022,0.037-0.042,0.054-0.063
		c0.041-0.044,0.084-0.088,0.129-0.131l0,0c0.036-0.042,0.08-0.084,0.13-0.124c0.02-0.018,0.044-0.038,0.063-0.057
		c0.024-0.02,0.048-0.038,0.069-0.059c0.027-0.025,0.059-0.047,0.085-0.067c0.019-0.013,0.036-0.029,0.051-0.041
		c0.033-0.026,0.065-0.05,0.099-0.069c0.015-0.012,0.03-0.024,0.046-0.031c0.037-0.025,0.069-0.05,0.106-0.067
		c0.01-0.013,0.03-0.019,0.045-0.03c0.035-0.021,0.07-0.039,0.101-0.058c0.019-0.012,0.036-0.02,0.056-0.029
		c0.033-0.02,0.066-0.034,0.095-0.05c0.024-0.013,0.043-0.024,0.066-0.032c0.03-0.017,0.058-0.027,0.088-0.038
		c0.027-0.014,0.047-0.024,0.077-0.036c0.025-0.009,0.054-0.022,0.083-0.032c0.03-0.011,0.058-0.02,0.085-0.033
		c0.028-0.009,0.047-0.016,0.074-0.024c0.031-0.014,0.06-0.023,0.1-0.03c0.022-0.006,0.043-0.016,0.065-0.023
		c0.036-0.007,0.07-0.019,0.102-0.028c0.026-0.002,0.05-0.007,0.068-0.012c0.039-0.009,0.074-0.018,0.108-0.023
		c0.021-0.007,0.046-0.007,0.068-0.013c0.036-0.007,0.071-0.011,0.11-0.021c0.022-0.004,0.046-0.006,0.074-0.008
		c0.031-0.005,0.066-0.008,0.101-0.011c0.034-0.002,0.072-0.01,0.106-0.01c0.021-0.002,0.044-0.002,0.065-0.004
		c0.064-0.004,0.131-0.004,0.189-0.004H75.31c2.006,0,3.638,1.627,3.638,3.633c0,2.011-1.632,3.64-3.638,3.64H64.207l19.735,19.734
		l0,0c0.044,0.042,0.086,0.083,0.124,0.129c0.022,0.022,0.037,0.043,0.054,0.064c0.018,0.023,0.041,0.048,0.063,0.069
		c0.022,0.028,0.045,0.057,0.066,0.085c0.013,0.021,0.027,0.036,0.04,0.055c0.026,0.034,0.05,0.065,0.07,0.096
		c0.009,0.017,0.023,0.031,0.032,0.051c0.022,0.032,0.046,0.063,0.064,0.099c0.012,0.016,0.023,0.033,0.037,0.05
		c0.016,0.032,0.032,0.066,0.049,0.096c0.013,0.022,0.026,0.041,0.033,0.061c0.02,0.031,0.036,0.061,0.05,0.095
		c0.011,0.022,0.022,0.045,0.035,0.067c0.012,0.027,0.025,0.056,0.039,0.085c0.011,0.024,0.024,0.054,0.034,0.079
		c0.01,0.026,0.023,0.055,0.03,0.078c0.01,0.028,0.023,0.061,0.036,0.091c0.004,0.022,0.016,0.045,0.021,0.067
		c0.012,0.037,0.022,0.071,0.037,0.1c0.002,0.025,0.006,0.043,0.017,0.065c0.01,0.035,0.017,0.072,0.028,0.113
		c0.002,0.018,0.011,0.036,0.012,0.054c0.011,0.04,0.018,0.077,0.026,0.116c0.002,0.021,0.006,0.039,0.011,0.057
		c0.006,0.041,0.017,0.08,0.019,0.118c0.003,0.021,0.004,0.047,0.009,0.066c0.004,0.036,0.008,0.073,0.013,0.109
		c0,0.03,0.006,0.063,0.006,0.09c0.002,0.028,0.002,0.056,0.004,0.087c0.004,0.056,0.004,0.114,0.004,0.168c0,0.004,0,0.011,0,0.013
		v0.007c0,0.062,0,0.117-0.004,0.174c-0.002,0.028-0.002,0.057-0.004,0.087c0,0.028-0.006,0.059-0.006,0.086
		c-0.005,0.037-0.009,0.077-0.013,0.109c-0.005,0.024-0.006,0.046-0.009,0.067c-0.002,0.041-0.013,0.076-0.019,0.114
		c-0.005,0.022-0.009,0.042-0.011,0.06c-0.008,0.039-0.015,0.078-0.026,0.117c-0.001,0.018-0.01,0.037-0.012,0.057
		c-0.011,0.034-0.018,0.074-0.028,0.112c-0.011,0.021-0.015,0.041-0.017,0.059c-0.014,0.038-0.024,0.071-0.037,0.103
		c-0.005,0.022-0.016,0.048-0.021,0.07c-0.013,0.03-0.026,0.063-0.036,0.093c-0.007,0.025-0.021,0.052-0.03,0.074
		c-0.009,0.028-0.022,0.054-0.034,0.08c-0.013,0.028-0.026,0.059-0.039,0.087c-0.013,0.021-0.024,0.046-0.035,0.064
		c-0.014,0.034-0.03,0.065-0.05,0.097c-0.006,0.018-0.02,0.038-0.033,0.056c-0.017,0.033-0.033,0.068-0.049,0.101
		c-0.013,0.015-0.024,0.034-0.037,0.052c-0.018,0.032-0.041,0.063-0.064,0.098c-0.009,0.016-0.023,0.033-0.032,0.048
		c-0.02,0.034-0.043,0.065-0.07,0.096c-0.013,0.017-0.027,0.038-0.04,0.056c-0.021,0.026-0.044,0.056-0.066,0.083
		c-0.021,0.024-0.045,0.046-0.063,0.069c-0.017,0.024-0.031,0.045-0.054,0.065c-0.038,0.044-0.079,0.087-0.124,0.13l0,0
		c-0.043,0.041-0.085,0.085-0.129,0.126c-0.022,0.018-0.043,0.038-0.068,0.054c-0.021,0.022-0.045,0.042-0.064,0.06
		c-0.035,0.024-0.062,0.048-0.085,0.07c-0.019,0.013-0.039,0.025-0.055,0.039c-0.035,0.025-0.07,0.044-0.099,0.068
		c-0.019,0.012-0.033,0.024-0.049,0.032c-0.032,0.024-0.067,0.047-0.1,0.068c-0.017,0.009-0.03,0.02-0.05,0.028
		c-0.033,0.021-0.065,0.038-0.1,0.06c-0.02,0.01-0.036,0.019-0.057,0.029c-0.03,0.018-0.063,0.033-0.095,0.05
		c-0.019,0.011-0.043,0.021-0.063,0.03c-0.028,0.014-0.059,0.025-0.093,0.041c-0.02,0.011-0.048,0.024-0.071,0.035
		c-0.027,0.011-0.053,0.021-0.082,0.03c-0.03,0.012-0.059,0.023-0.089,0.033c-0.023,0.009-0.044,0.017-0.071,0.022
		c-0.028,0.012-0.068,0.022-0.098,0.034c-0.023,0.006-0.046,0.013-0.064,0.019c-0.039,0.012-0.075,0.018-0.112,0.028
		c-0.018,0.005-0.039,0.011-0.056,0.016c-0.041,0.006-0.078,0.016-0.115,0.024c-0.02,0.003-0.041,0.006-0.061,0.011
		c-0.036,0.007-0.074,0.011-0.114,0.02c-0.024,0.002-0.046,0.004-0.07,0.006c-0.039,0.007-0.069,0.012-0.102,0.014
		c-0.036,0.006-0.068,0.006-0.096,0.008c-0.028,0.002-0.055,0.005-0.083,0.005c-0.06,0.002-0.124,0.006-0.181,0.006h-7.222
		l5.533,8.273c1.32,2.091,2.471,3.977,2.078,4.481c-0.303,0.388-2.662-0.993-3.513-1.746l-15.452-12.075l0,0
		c-0.038-0.043-0.08-0.086-0.121-0.13c-0.018-0.021-0.031-0.041-0.056-0.065c-0.019-0.023-0.041-0.045-0.059-0.069
		c-0.022-0.027-0.045-0.057-0.071-0.083c-0.012-0.018-0.023-0.039-0.035-0.056c-0.026-0.03-0.049-0.062-0.07-0.096
		c-0.013-0.015-0.024-0.032-0.033-0.048c-0.023-0.035-0.042-0.065-0.067-0.098c-0.013-0.018-0.023-0.037-0.027-0.052
		c-0.021-0.032-0.042-0.067-0.059-0.101c-0.011-0.018-0.024-0.038-0.03-0.056c-0.02-0.031-0.038-0.063-0.047-0.097
		c-0.014-0.019-0.027-0.043-0.036-0.064c-0.013-0.028-0.028-0.059-0.042-0.087c-0.008-0.026-0.022-0.052-0.03-0.08
		c-0.012-0.022-0.021-0.049-0.035-0.077c-0.011-0.03-0.022-0.06-0.03-0.09c-0.011-0.022-0.021-0.048-0.026-0.07
		c-0.011-0.031-0.023-0.065-0.033-0.103c-0.006-0.018-0.011-0.038-0.02-0.059c-0.006-0.038-0.016-0.078-0.023-0.112
		c-0.008-0.02-0.011-0.039-0.013-0.057c-0.011-0.039-0.021-0.078-0.027-0.117c-0.006-0.018-0.009-0.037-0.011-0.06
		c-0.011-0.038-0.014-0.073-0.017-0.114c-0.004-0.021-0.011-0.043-0.011-0.067c-0.004-0.032-0.011-0.072-0.011-0.109
		c-0.004-0.027-0.006-0.058-0.01-0.086c0-0.03-0.005-0.059-0.005-0.087c-0.002-0.057-0.002-0.112-0.002-0.174v-0.007
		c0-0.002,0-0.009,0-0.013c0-0.054,0-0.112,0.002-0.168c0-0.031,0.005-0.058,0.005-0.087c0.004-0.027,0.006-0.059,0.01-0.09
		c0-0.036,0.007-0.073,0.011-0.109c0-0.02,0.007-0.046,0.011-0.066c0.003-0.038,0.006-0.077,0.017-0.118
		c0.002-0.018,0.005-0.035,0.011-0.057c0.006-0.039,0.016-0.076,0.027-0.116c0.002-0.018,0.005-0.036,0.013-0.054
		c0.007-0.041,0.017-0.078,0.023-0.113c0.009-0.021,0.014-0.04,0.02-0.065c0.009-0.029,0.021-0.063,0.033-0.1
		c0.005-0.022,0.015-0.045,0.026-0.067c0.008-0.03,0.019-0.063,0.03-0.091c0.013-0.023,0.022-0.052,0.035-0.078
		c0.008-0.025,0.022-0.055,0.03-0.079c0.013-0.029,0.028-0.058,0.042-0.085c0.008-0.023,0.021-0.045,0.036-0.067
		c0.01-0.034,0.027-0.063,0.047-0.095c0.006-0.02,0.02-0.038,0.03-0.061c0.018-0.029,0.039-0.063,0.059-0.096
		c0.004-0.017,0.014-0.034,0.027-0.05c0.025-0.035,0.043-0.066,0.067-0.099c0.009-0.02,0.02-0.034,0.033-0.051
		c0.021-0.03,0.044-0.062,0.07-0.096c0.012-0.019,0.023-0.034,0.035-0.055c0.025-0.028,0.049-0.057,0.071-0.085
		c0.018-0.021,0.041-0.046,0.059-0.069c0.024-0.021,0.038-0.042,0.056-0.064c0.042-0.046,0.083-0.087,0.121-0.129l0,0
		c0.045-0.046,0.093-0.085,0.133-0.126c0.019-0.017,0.039-0.036,0.065-0.057c0.024-0.016,0.043-0.04,0.07-0.058
		c0.028-0.024,0.057-0.045,0.087-0.067c0.019-0.016,0.038-0.028,0.054-0.042c0.03-0.021,0.063-0.047,0.093-0.069
		c0.019-0.009,0.032-0.021,0.052-0.033c0.032-0.019,0.066-0.042,0.099-0.064c0.017-0.008,0.032-0.018,0.048-0.029
		c0.032-0.02,0.065-0.041,0.103-0.057c0.018-0.013,0.033-0.021,0.053-0.031c0.032-0.018,0.065-0.033,0.098-0.052
		c0.02-0.007,0.04-0.021,0.063-0.028c0.03-0.017,0.061-0.031,0.089-0.044c0.029-0.008,0.051-0.02,0.075-0.03
		c0.029-0.014,0.058-0.021,0.085-0.035c0.026-0.009,0.057-0.019,0.085-0.03c0.02-0.011,0.047-0.017,0.074-0.025
		c0.031-0.009,0.063-0.02,0.093-0.03c0.023-0.008,0.044-0.014,0.068-0.02c0.035-0.01,0.072-0.021,0.105-0.029
		c0.022-0.006,0.041-0.009,0.066-0.015c0.032-0.009,0.072-0.019,0.108-0.022c0.021-0.006,0.049-0.01,0.066-0.015
		c0.039-0.004,0.074-0.012,0.111-0.015c0.023-0.007,0.049-0.009,0.077-0.014c0.03,0,0.061-0.009,0.098-0.011
		c0.032-0.002,0.072-0.005,0.104-0.011c0.025,0,0.047-0.002,0.069-0.002c0.063-0.002,0.122-0.004,0.185-0.004h7.216L52.86,85.541
		l0,0c-0.045-0.043-0.087-0.087-0.129-0.133c-0.017-0.019-0.032-0.041-0.054-0.061c-0.019-0.026-0.042-0.05-0.061-0.072
		c-0.024-0.028-0.042-0.056-0.063-0.084c-0.015-0.021-0.032-0.037-0.049-0.055c-0.022-0.03-0.044-0.065-0.065-0.096
		c-0.013-0.016-0.021-0.033-0.034-0.052c-0.021-0.03-0.039-0.063-0.063-0.098c-0.008-0.016-0.019-0.032-0.03-0.05
		c-0.017-0.033-0.041-0.065-0.057-0.098c-0.013-0.02-0.02-0.037-0.034-0.058c-0.014-0.032-0.031-0.063-0.049-0.095
		c-0.011-0.022-0.02-0.042-0.033-0.067c-0.012-0.026-0.025-0.057-0.041-0.085c-0.007-0.028-0.022-0.055-0.028-0.078
		c-0.013-0.028-0.024-0.054-0.03-0.078c-0.018-0.033-0.026-0.063-0.038-0.091c-0.009-0.02-0.013-0.047-0.023-0.07
		c-0.013-0.032-0.019-0.069-0.031-0.102c-0.01-0.022-0.014-0.042-0.016-0.062c-0.011-0.036-0.024-0.073-0.036-0.112
		c-0.004-0.018-0.006-0.035-0.008-0.057c-0.011-0.036-0.022-0.076-0.026-0.114c-0.002-0.021-0.008-0.04-0.013-0.059
		c-0.001-0.038-0.012-0.079-0.015-0.118c-0.008-0.021-0.008-0.042-0.01-0.063c-0.005-0.039-0.01-0.075-0.017-0.11
		c-0.001-0.028-0.001-0.058-0.001-0.092c-0.007-0.028-0.007-0.057-0.011-0.086c-0.002-0.057-0.002-0.11-0.002-0.17
		c0-0.002,0-0.003,0-0.012C51.793,82.966,51.793,82.963,51.793,82.96z"/>
</g>
<g>
</g>
<g>
</g>
<g>
</g>
<g>
</g>
<g>
</g>
<g>
</g>
<g>
</g>
<g>
</g>
<g>
</g>
<g>
</g>
<g>
</g>
<g>
</g>
<g>
</g>
<g>
</g>
<g>
</g>
</svg>
