<?xml version="1.0" encoding="utf-8"?>
<!-- Generator: Adobe Illustrator 19.0.0, SVG Export Plug-In . SVG Version: 6.00 Build 0)  -->
<svg version="1.1" id="Capa_1" xmlns="http://www.w3.org/2000/svg" xmlns:xlink="http://www.w3.org/1999/xlink" x="0px" y="0px"
	 viewBox="-408 210.7 141.3 141.3" style="enable-background:new -408 210.7 141.3 141.3;" xml:space="preserve">
<style type="text/css">
	.st0{fill:#E28749;}
	.st1{fill:#426170;}
	.st2{fill:#88C2D3;}
</style>
<g id="XMLID_52_">
	<ellipse id="XMLID_1_" class="st0" cx="-347.6" cy="282" rx="59.9" ry="58.5"/>
	<g id="XMLID_11_">
		<path id="XMLID_5_" class="st1" d="M-272.4,300.6c-2.8-2.9-6.5-4.8-10.4-5.5c-0.8-6.9-6.6-12.2-13.7-12.2c-1.6,0-3.2,0.3-4.6,0.8
			c-1.5-4.1-4.2-7.8-7.6-10.5c-4.4-3.6-10-5.6-15.7-5.6c-6.6,0-12.9,2.6-17.6,7.3c-0.2,0.2-0.4,0.4-0.6,0.6
			c-4.3,4.6-6.7,10.6-6.7,16.9c0,1.3-1,2.4-2.3,2.4c0,0,0,0,0,0c-0.1,0-0.1,0-0.1,0c0,0,0,0,0,0c-5,0.1-9.6,2.1-13.1,5.6
			c-1.3,1.3-2.4,2.8-3.3,4.4c-1.5,2.7-2.3,5.8-2.3,9c0,10.5,8.5,19,19,19h65.4c10.5,0,19-8.5,19-19
			C-267,308.8-268.9,304.1-272.4,300.6z"/>
		<g id="XMLID_4_">
			<g id="XMLID_8_">
				<path class="st2" d="M-345.9,297.9c1.4-1.5,2.2-3.4,2.2-5.5c0-4.6,1.6-8.8,4.3-12.1c3.5-4.4,9-7.2,15-7.2
					c4.4,0,8.8,1.5,12.2,4.3c3.4,2.7,5.8,6.6,6.7,10.8c0.2,0.9,0.8,1.6,1.7,2c0.9,0.3,1.8,0.2,2.6-0.3c1.4-1,3-1.5,4.7-1.5
					c4.6,0,8.3,3.7,8.3,8.3c0,0.2,0,0.5,0,0.7c-0.1,0.7,0.2,1.5,0.7,2.1c0.5,0.6,1.2,0.9,2,0.9c3.5,0.1,6.8,1.6,9.3,4.1
					c2.4,2.5,3.8,5.9,3.8,9.4c0,7.4-6.1,13.5-13.5,13.5h-65.4c-7.5,0-13.5-6.1-13.5-13.5c0-2.4,0.6-4.7,1.7-6.6
					c0.6-1.1,1.3-2,2.2-2.9c2.5-2.5,5.8-3.9,9.3-3.9c0.2,0,0.3,0,0.3,0C-349.2,300.2-347.3,299.4-345.9,297.9z"/>
			</g>
			<g id="XMLID_9_">
			</g>
		</g>
	</g>
</g>
</svg>
