<?xml version="1.0" encoding="iso-8859-1"?>
<!-- Generator: Adobe Illustrator 19.0.0, SVG Export Plug-In . SVG Version: 6.00 Build 0)  -->
<svg version="1.1" id="Capa_1" xmlns="http://www.w3.org/2000/svg" xmlns:xlink="http://www.w3.org/1999/xlink" x="0px" y="0px"
	 viewBox="0 0 469.335 469.335" style="enable-background:new 0 0 469.335 469.335;" xml:space="preserve">
<path style="fill:#303C42;" d="M276.771,170.668c58.229,0,128.562-42.333,128.562-94.896c0-13.505-5.232-25.699-15.294-36.362
	c10.039-7.499,20.391-14.03,30.732-19.201c5.271-2.635,7.396-9.042,4.771-14.312c-2.646-5.281-9.042-7.396-14.313-4.771
	c-13.125,6.563-26.207,15.263-38.801,25.172c-6.753-3.212-13.923-4.964-21.533-4.964C298.334,21.335,256,91.668,256,149.897
	C256,161.345,265.313,170.668,276.771,170.668z"/>
<path style="fill:#7CB342;" d="M350.896,42.668c0.789,0,1.533,0.18,2.306,0.24c-22.046,20.832-41.189,45.227-53.41,69.656
	c-2.625,5.271-0.5,11.677,4.771,14.313c1.542,0.76,3.167,1.125,4.771,1.125c3.896,0,7.667-2.156,9.542-5.896
	c12.25-24.505,32.066-49.044,54.732-69.184c0.026,0.026,0.055,0.043,0.081,0.069C380.625,59.939,384,67.387,384,75.772
	c0,38.771-59.479,73.292-106.667,73.563C277.605,102.158,312.125,42.668,350.896,42.668z"/>
<g>
	<path style="fill:#303C42;" d="M10.667,320.001c3.229,0,6.438-1.469,8.542-4.271c0.604-0.802,62.438-81.063,204.792-81.063
		c5.896,0,10.667-4.771,10.667-10.667c0-5.896-4.771-10.667-10.667-10.667c-152.917,0-219.125,85.938-221.875,89.604
		c-3.521,4.708-2.563,11.396,2.146,14.927C6.188,319.303,8.438,320.001,10.667,320.001z"/>
	<path style="fill:#303C42;" d="M405.334,170.668c-47.875,0-61.479,24.438-62.875,27.229c-2.583,5.167-0.5,11.313,4.583,14.042
		c5.125,2.75,11.5,0.76,14.375-4.25c0.354-0.646,9.354-15.688,43.917-15.688c38.5,0,42.667,29.833,42.667,42.667
		c0,16.604-17.646,64-96,64c-46.396,0-73.438-6.5-97.313-12.24c-19.479-4.677-37.875-9.094-62.688-9.094
		c-54.875,0-156.521,43.854-190.875,112.562c-2.625,5.271-0.5,11.677,4.771,14.313c1.542,0.76,3.167,1.125,4.771,1.125
		c3.896,0,7.667-2.156,9.542-5.896C50.5,338.855,143.667,298.668,192,298.668c22.292,0,38.688,3.948,57.708,8.51
		c25.021,6.01,53.375,12.823,102.292,12.823c95.771,0,117.333-63.198,117.333-85.333
		C469.334,205.147,452.563,170.668,405.334,170.668z"/>
	<path style="fill:#303C42;" d="M224,341.335c-113.063,0-137.146,68.385-138.125,71.292c-1.854,5.594,1.167,11.635,6.75,13.49
		c5.625,1.896,11.625-1.135,13.5-6.74c0.188-0.573,20.021-56.708,117.875-56.708c95.792,0,138.667,26.792,138.667,53.333
		c0,26.448-17.396,32-32,32c-13.771,0-30.021-13.156-35.146-18.219c-4.167-4.146-10.896-4.156-15.063,0.031
		c-4.167,4.167-4.167,10.906,0,15.063c2.5,2.5,25.188,24.458,50.208,24.458c25.792,0,53.333-14.01,53.333-53.333
		C384,379.908,341.959,341.335,224,341.335z"/>
</g>
<linearGradient id="SVGID_1_" gradientUnits="userSpaceOnUse" x1="-63.377" y1="617.6088" x2="-46.3675" y2="609.6766" gradientTransform="matrix(21.3333 0 0 -21.3333 1430.0978 13315.2373)">
	<stop  offset="0" style="stop-color:#FFFFFF;stop-opacity:0.2"/>
	<stop  offset="1" style="stop-color:#FFFFFF;stop-opacity:0"/>
</linearGradient>
<path style="fill:url(#SVGID_1_);" d="M276.771,170.668c58.229,0,128.562-42.333,128.562-94.896
	c0-13.505-5.232-25.699-15.294-36.362c10.039-7.499,20.391-14.03,30.732-19.201c5.271-2.635,7.396-9.042,4.771-14.312
	c-2.646-5.281-9.042-7.396-14.313-4.771c-13.125,6.563-26.207,15.263-38.801,25.172c-6.753-3.212-13.923-4.964-21.533-4.964
	C298.334,21.335,256,91.668,256,149.897C256,161.345,265.313,170.668,276.771,170.668z M10.667,320.001
	c3.229,0,6.438-1.469,8.542-4.271c0.604-0.802,62.438-81.063,204.792-81.063c5.896,0,10.667-4.771,10.667-10.667
	c0-5.896-4.771-10.667-10.667-10.667c-152.917,0-219.125,85.938-221.875,89.604c-3.521,4.708-2.563,11.396,2.146,14.927
	C6.188,319.303,8.438,320.001,10.667,320.001z M405.334,170.668c-47.875,0-61.479,24.438-62.875,27.229
	c-2.583,5.167-0.5,11.313,4.583,14.042c5.125,2.75,11.5,0.76,14.375-4.25c0.354-0.646,9.354-15.688,43.917-15.688
	c38.5,0,42.667,29.833,42.667,42.667c0,16.604-17.646,64-96,64c-46.396,0-73.438-6.5-97.313-12.24
	c-19.479-4.677-37.875-9.094-62.688-9.094c-54.875,0-156.521,43.854-190.875,112.562c-2.625,5.271-0.5,11.677,4.771,14.313
	c1.542,0.76,3.167,1.125,4.771,1.125c3.896,0,7.667-2.156,9.542-5.896C50.5,338.855,143.667,298.668,192,298.668
	c22.292,0,38.688,3.948,57.708,8.51c25.021,6.01,53.375,12.823,102.292,12.823c95.771,0,117.333-63.198,117.333-85.333
	C469.334,205.147,452.563,170.668,405.334,170.668z M224,341.335c-113.063,0-137.146,68.385-138.125,71.292
	c-1.854,5.594,1.167,11.635,6.75,13.49c5.625,1.896,11.625-1.135,13.5-6.74c0.188-0.573,20.021-56.708,117.875-56.708
	c95.792,0,138.667,26.792,138.667,53.333c0,26.448-17.396,32-32,32c-13.771,0-30.021-13.156-35.146-18.219
	c-4.167-4.146-10.896-4.156-15.063,0.031c-4.167,4.167-4.167,10.906,0,15.063c2.5,2.5,25.188,24.458,50.208,24.458
	c25.792,0,53.333-14.01,53.333-53.333C384,379.908,341.959,341.335,224,341.335z"/>
<g>
</g>
<g>
</g>
<g>
</g>
<g>
</g>
<g>
</g>
<g>
</g>
<g>
</g>
<g>
</g>
<g>
</g>
<g>
</g>
<g>
</g>
<g>
</g>
<g>
</g>
<g>
</g>
<g>
</g>
</svg>
