<?xml version="1.0" encoding="utf-8"?>
<!-- Generator: Adobe Illustrator 19.0.0, SVG Export Plug-In . SVG Version: 6.00 Build 0)  -->
<svg version="1.1" id="Layer_1" xmlns="http://www.w3.org/2000/svg" xmlns:xlink="http://www.w3.org/1999/xlink" x="0px" y="0px"
	 viewBox="9 257 48 48" style="enable-background:new 9 257 48 48;" xml:space="preserve">
<style type="text/css">
	.st0{fill:#3D3D3D;}
	.st1{fill:#FBB071;}
	.st2{fill:#8F5543;}
	.st3{fill:#DB8375;}
	.st4{fill:#2A6B84;}
	.st5{fill:#05232E;}
	.st6{fill:#FFFFFF;}
	.st7{fill:#FDF3D3;}
</style>
<g>
	<g>
		<path class="st0" d="M20.2,292.5L9,303.5c2.1,2,5.5,2,7.6,0l3-2.9c2.1,2,5.5,2,7.6,0l2.8-2.7C26.3,297,22.9,295,20.2,292.5z"/>
		<path class="st0" d="M51.6,262.2h-5.4v11.4c0-3.8,2.2-7.2,5.4-9c1.6-0.9,3.4-1.4,5.4-1.4c0-0.7,0-1,0-1V257
			C54,257,51.6,259.3,51.6,262.2z"/>
	</g>
	<path class="st0" d="M40.8,262.2c0-2.9-2.4-5.2-5.4-5.2v6.2c2,0,3.8,0.5,5.4,1.4c3.2,1.8,5.4,5.1,5.4,9v-11.4H40.8z"/>
</g>
<path class="st1" d="M46.2,276.7v-2.5c0-0.3,0-0.5,0-0.5c0-3.8-2.2-7.2-5.4-9c-1.6-0.9-3.4-1.4-5.4-1.4v14.5
	C38.4,274.9,42.9,274.6,46.2,276.7z M38.7,270.5c0-1.1,1-2.1,2.2-2.1s2.2,0.9,2.2,2.1c0,1.1-1,2.1-2.2,2.1S38.7,271.6,38.7,270.5z"
	/>
<path class="st1" d="M46.2,273.6v3.1c0.5,0.3,1,0.7,1.4,1.1H57v-14.5c-2,0-3.8,0.5-5.4,1.4C48.4,266.4,46.2,269.8,46.2,273.6z
	 M53.8,270.5c0,1.1-1,2.1-2.2,2.1s-2.2-0.9-2.2-2.1c0-1.1,1-2.1,2.2-2.1S53.8,269.4,53.8,270.5z"/>
<path class="st2" d="M35.4,277.8l-1,1L35.4,277.8z"/>
<path class="st3" d="M47.6,277.8c3.4,3.2,3.4,8.5,0,11.7c-6.7,6.5-17.7,6.5-24.4,0l-3,2.9c2.7,2.5,6.1,4.5,9.8,5.4
	c1.7,0.4,3.5,0.7,5.4,0.7c11.9,0,21.6-9.3,21.6-20.8C57,277.8,47.6,277.8,47.6,277.8z"/>
<path class="st4" d="M35.4,277.8l12.2,11.7c3.4-3.2,3.4-8.5,0-11.7c-0.4-0.4-0.9-0.8-1.4-1.1C42.9,274.6,38.4,274.9,35.4,277.8z"/>
<path class="st5" d="M47.6,289.5l-12.2-11.8l-1,1l-11.2,10.8C30,296,40.9,296,47.6,289.5z"/>
<ellipse class="st6" cx="40.8" cy="270.5" rx="2.2" ry="2.1"/>
<ellipse class="st7" cx="51.6" cy="270.5" rx="2.2" ry="2.1"/>
</svg>
