<?xml version="1.0" encoding="utf-8"?>
<!-- Generator: Adobe Illustrator 19.0.0, SVG Export Plug-In . SVG Version: 6.00 Build 0)  -->
<svg version="1.1" id="Layer_1" xmlns="http://www.w3.org/2000/svg" xmlns:xlink="http://www.w3.org/1999/xlink" x="0px" y="0px"
	 viewBox="28.5 265 32 32" style="enable-background:new 28.5 265 32 32;" xml:space="preserve">
<style type="text/css">
	.st0{fill:url(#path3818-0-5-0_1_);}
	.st1{fill:#5DDDD3;}
	.st2{fill:#E29127;}
	.st3{fill:#231F20;}
	.st4{fill:#847C7E;}
</style>
<radialGradient id="path3818-0-5-0_1_" cx="1141.6042" cy="1266.4364" r="230.4118" gradientTransform="matrix(5.979268e-002 0 0 1.910000e-002 -25.0007 269.393)" gradientUnits="userSpaceOnUse">
	<stop  offset="0" style="stop-color:#3D3D3D"/>
	<stop  offset="0.5" style="stop-color:#686868;stop-opacity:0.498"/>
	<stop  offset="1" style="stop-color:#686868;stop-opacity:0"/>
</radialGradient>
<path id="path3818-0-5-0" class="st0" d="M57,293.6c0,2.4-6.2,4.4-13.8,4.4c-7.6,0-13.8-2-13.8-4.4l0,0c0-2.4,6.2-4.4,13.8-4.4
	C50.9,289.2,57,291.2,57,293.6L57,293.6z"/>
<path class="st1" d="M49.3,275.6H30.6c-0.2,0-0.3,0.1-0.5,0.2c-0.1,0.1-0.2,0.3-0.2,0.5c0.5,6.6,2.8,12.3,6.3,15.5
	c0.1,0.1,0.3,0.2,0.4,0.2h10.9c0.1,0,0.3-0.1,0.4-0.2c3.5-3.1,5.8-8.9,6.3-15.5c0-0.2,0-0.3-0.2-0.5c-0.1-0.1-0.3-0.2-0.5-0.2H51"/>
<g>
	<path class="st2" d="M38.9,294.1H50c0.6,0,1.1-0.5,1.1-1.1s-0.5-1.1-1.1-1.1H34.3c-0.6,0-1.1,0.5-1.1,1.1s0.5,1.1,1.1,1.1h3"/>
	<path class="st2" d="M54.1,278.2c-0.1,0.8-0.2,1.6-0.4,2.3c1.7,0.2,3,1.6,3,3.4c0,1.9-1.5,3.4-3.3,3.4c-0.7,0-1.3-0.2-1.8-0.5
		c-0.4,0.7-0.7,1.4-1.1,2c0.9,0.5,1.9,0.9,2.9,0.9c3.1,0,5.6-2.6,5.6-5.7C59,281,56.9,278.6,54.1,278.2z"/>
</g>
<g>
	<path class="st3" d="M54.7,277.8c0.1-0.5,0.1-1,0.1-1.5c0-0.3-0.1-0.6-0.3-0.8c-0.2-0.2-0.5-0.4-0.8-0.4H51c-0.3,0-0.5,0.2-0.5,0.5
		c0,0.3,0.2,0.5,0.5,0.5h2.7c0,0,0.1,0,0.1,0s0,0.1,0,0.1c0,0.6-0.1,1.3-0.2,1.9c0,0,0,0,0,0c-0.1,0.8-0.2,1.5-0.4,2.3c0,0,0,0,0,0
		c-0.5,2.2-1.2,4.3-2,6.1c0,0,0,0,0,0c-0.3,0.7-0.7,1.4-1.1,2c0,0,0,0,0,0c-0.7,1.1-1.5,2-2.4,2.8c0,0-0.1,0-0.1,0H36.7
		c0,0-0.1,0-0.1,0c-3.4-3.1-5.7-8.7-6.2-15.1c0,0,0-0.1,0-0.1c0,0,0.1,0,0.1,0h18.7c0.3,0,0.5-0.2,0.5-0.5c0-0.3-0.2-0.5-0.5-0.5
		H30.6c-0.3,0-0.6,0.1-0.8,0.4c-0.2,0.2-0.3,0.5-0.3,0.8c0.4,6.2,2.6,11.8,5.8,15.1h-1c-0.9,0-1.6,0.7-1.6,1.6
		c0,0.9,0.7,1.6,1.6,1.6h3c0.3,0,0.5-0.2,0.5-0.5c0-0.3-0.2-0.5-0.5-0.5h-3c-0.3,0-0.6-0.3-0.6-0.6c0-0.4,0.3-0.6,0.6-0.6h2.4h10.9
		H50c0.3,0,0.6,0.3,0.6,0.6c0,0.4-0.3,0.6-0.6,0.6H38.9c-0.3,0-0.5,0.2-0.5,0.5c0,0.3,0.2,0.5,0.5,0.5H50c0.9,0,1.6-0.7,1.6-1.6
		c0-0.9-0.7-1.6-1.6-1.6h-1c0.6-0.6,1.1-1.3,1.6-2c0.9,0.5,1.8,0.7,2.8,0.7c3.4,0,6.1-2.8,6.1-6.2C59.5,280.9,57.5,278.4,54.7,277.8
		z M54.1,281.1c1.2,0.3,2.2,1.5,2.2,2.8c0,1.6-1.3,2.9-2.8,2.9c-0.4,0-0.8-0.1-1.2-0.3C53,284.9,53.7,283.1,54.1,281.1z M53.4,289.2
		c-0.8,0-1.6-0.2-2.3-0.5c0,0,0,0,0,0c0,0,0-0.1,0.1-0.1c0.1-0.1,0.1-0.2,0.2-0.3c0,0,0,0,0,0c0.1-0.2,0.3-0.5,0.4-0.7
		c0.5,0.2,1,0.4,1.6,0.4c2.1,0,3.8-1.7,3.8-3.9c0-1-0.4-1.9-1-2.6c-0.5-0.6-1.2-1-1.9-1.2c0,0,0,0,0,0c0.1-0.4,0.2-0.9,0.2-1.3
		c2.3,0.5,4,2.7,4,5.1C58.6,286.8,56.3,289.2,53.4,289.2z"/>
	<path class="st4" d="M42,269.7c-0.7,0.6-1,1.3-1,2.1c0,1.2,1,2.1,1,2.1c0.1,0.1,0.2,0.1,0.3,0.1c0.1,0,0.3-0.1,0.4-0.2
		c0.2-0.2,0.1-0.5,0-0.7c0,0-0.7-0.6-0.7-1.4c0-0.5,0.2-0.9,0.7-1.4c0.7-0.6,1-1.3,1-2.1c0-1.2-1-2.1-1-2.2c-0.2-0.2-0.5-0.2-0.7,0
		c-0.2,0.2-0.1,0.5,0,0.7c0,0,0.7,0.6,0.7,1.4C42.7,268.8,42.5,269.2,42,269.7z"/>
	<path class="st4" d="M45.2,270.8c-0.5,0.5-0.7,1-0.7,1.5c0,0.9,0.7,1.5,0.7,1.6c0.1,0.1,0.2,0.1,0.3,0.1c0.1,0,0.3-0.1,0.4-0.2
		c0.2-0.2,0.2-0.5,0-0.7c0,0-0.4-0.4-0.4-0.9c0-0.3,0.1-0.5,0.4-0.8c0.5-0.5,0.7-1,0.7-1.5c0-0.9-0.7-1.5-0.7-1.6
		c-0.2-0.2-0.5-0.2-0.7,0c-0.2,0.2-0.2,0.5,0,0.7c0,0,0.4,0.4,0.4,0.9C45.6,270.3,45.5,270.6,45.2,270.8z"/>
	<path class="st4" d="M38.3,270.8c-0.5,0.5-0.7,1-0.7,1.5c0,0.9,0.7,1.5,0.7,1.6c0.1,0.1,0.2,0.1,0.3,0.1c0.1,0,0.3-0.1,0.4-0.2
		c0.2-0.2,0.2-0.5,0-0.7c0,0-0.4-0.4-0.4-0.9c0-0.3,0.1-0.5,0.4-0.8c0.5-0.5,0.7-1,0.7-1.5c0-0.9-0.7-1.5-0.7-1.6
		c-0.2-0.2-0.5-0.2-0.7,0c-0.2,0.2-0.2,0.5,0,0.7c0,0,0.4,0.4,0.4,0.9C38.7,270.3,38.6,270.6,38.3,270.8z"/>
</g>
</svg>
