<?xml version="1.0" encoding="utf-8"?>
<!-- Generator: Adobe Illustrator 19.0.0, SVG Export Plug-In . SVG Version: 6.00 Build 0)  -->
<svg version="1.1"
	 id="svg7564" xmlns:rdf="http://www.w3.org/1999/02/22-rdf-syntax-ns#" xmlns:cc="http://creativecommons.org/ns#" xmlns:dc="http://purl.org/dc/elements/1.1/" sodipodi:docname="New document 4" inkscape:version="0.48.1 " xmlns:svg="http://www.w3.org/2000/svg" xmlns:sodipodi="http://sodipodi.sourceforge.net/DTD/sodipodi-0.dtd" xmlns:inkscape="http://www.inkscape.org/namespaces/inkscape"
	 xmlns="http://www.w3.org/2000/svg" xmlns:xlink="http://www.w3.org/1999/xlink" x="0px" y="0px" viewBox="-412.5 232.8 121 107.8"
	 style="enable-background:new -412.5 232.8 121 107.8;" xml:space="preserve">
<style type="text/css">
	.st0{opacity:0.4;fill:url(#rect2801_1_);enable-background:new    ;}
	.st1{opacity:0.4;fill:url(#rect3696_1_);enable-background:new    ;}
	.st2{opacity:0.4;fill:url(#rect3700_1_);enable-background:new    ;}
	.st3{fill:url(#rect6994_1_);}
	.st4{fill:none;stroke:url(#rect7002_1_);}
	.st5{fill:none;stroke:url(#rect6998_1_);stroke-width:1;}
	.st6{opacity:0.6;}
	.st7{opacity:0.5;fill:#B9B9B9;enable-background:new    ;}
	.st8{fill:#66C4B6;}
	.st9{fill:#EFA143;}
	.st10{fill:#4E9386;}
	.st11{fill:#211D1F;}
	.st12{fill:#16090D;}
</style>
<sodipodi:namedview  id="base" inkscape:window-maximized="1" inkscape:pageopacity="0.0" inkscape:window-width="1360" inkscape:current-layer="layer1" inkscape:document-units="px" inkscape:window-x="-8" inkscape:pageshadow="2" inkscape:window-height="706" inkscape:window-y="-8" showgrid="false" inkscape:cy="20.874172" inkscape:cx="69.25" inkscape:zoom="1" borderopacity="1.0" bordercolor="#666666" pagecolor="#ffffff">
	<inkscape:grid  type="xygrid" id="grid7756" snapvisiblegridlinesonly="true" enabled="true" visible="true" empspacing="12">
		</inkscape:grid>
</sodipodi:namedview>
<g id="layer1" transform="translate(0,-924.36218)" inkscape:label="Layer 1" inkscape:groupmode="layer">
	<g id="g7796">
		
			<radialGradient id="rect2801_1_" cx="-760.4417" cy="1335.9042" r="2.4994" gradientTransform="matrix(6.4121 0 0 -1.8451 4567.0122 3722.5869)" gradientUnits="userSpaceOnUse">
			<stop  offset="0" style="stop-color:#181818"/>
			<stop  offset="1" style="stop-color:#181818;stop-opacity:0"/>
		</radialGradient>
		<rect id="rect2801" x="-309" y="1253.1" class="st0" width="16" height="9.2"/>
		
			<radialGradient id="rect3696_1_" cx="-889.5724" cy="1549.8202" r="2.4994" gradientTransform="matrix(-6.4121 0 0 1.8451 -6099.0122 -1601.778)" gradientUnits="userSpaceOnUse">
			<stop  offset="0" style="stop-color:#181818"/>
			<stop  offset="1" style="stop-color:#181818;stop-opacity:0"/>
		</radialGradient>
		<rect id="rect3696" x="-411" y="1253.1" class="st1" width="16" height="9.2"/>
		
			<linearGradient id="rect3700_1_" gradientUnits="userSpaceOnUse" x1="-671.2093" y1="1289.5366" x2="-671.2093" y2="1296.0204" gradientTransform="matrix(3.0714 0 0 -1.4286 1709.5717 3104.5938)">
			<stop  offset="0" style="stop-color:#181818;stop-opacity:0"/>
			<stop  offset="0.5" style="stop-color:#181818"/>
			<stop  offset="1" style="stop-color:#181818;stop-opacity:0"/>
		</linearGradient>
		<rect id="rect3700" x="-395" y="1253.1" class="st2" width="86" height="9.2"/>
	</g>
	
		<linearGradient id="rect6994_1_" gradientUnits="userSpaceOnUse" x1="-738.701" y1="1594.0945" x2="-705.1208" y2="1594.0945" gradientTransform="matrix(0 2.8022 3.0267 0 -5176.856 3234.5598)">
		<stop  offset="0" style="stop-color:#F4F4F4"/>
		<stop  offset="1" style="stop-color:#DBDBDB"/>
	</linearGradient>
	<path id="rect6994" class="st3" d="M-301,1166.9v89.5c0,1.3-1.1,2.3-2.5,2.3h-97c-1.4,0-2.5-1-2.5-2.3v-89.5c0-1.3,1.1-2.3,2.5-2.3
		h97C-302.1,1164.6-301,1165.6-301,1166.9z"/>
	
		<linearGradient id="rect7002_1_" gradientUnits="userSpaceOnUse" x1="-700.9838" y1="1708.9166" x2="-648.3407" y2="1708.9166" gradientTransform="matrix(0 1.7414 2.1957 0 -4104.1865 2386.4658)">
		<stop  offset="0" style="stop-color:#FFFFFF"/>
		<stop  offset="1.785714e-002" style="stop-color:#FFFFFF;stop-opacity:0.2353"/>
		<stop  offset="0.9825" style="stop-color:#FFFFFF;stop-opacity:0.1569"/>
		<stop  offset="1" style="stop-color:#FFFFFF;stop-opacity:0.3922"/>
	</linearGradient>
	<path id="rect7002" class="st4" d="M-301.5,1166.9v89.5c0,1-0.9,1.8-2,1.8h-97c-1.1,0-2-0.8-2-1.8v-89.5c0-1,0.9-1.8,2-1.8h97
		C-302.4,1165-301.5,1165.9-301.5,1166.9z"/>
	
		<linearGradient id="rect6998_1_" gradientUnits="userSpaceOnUse" x1="-950.1575" y1="1705.2554" x2="-895.6505" y2="1705.2554" gradientTransform="matrix(0 -1.7759 2.2391 0 -4170.2896 -427.3275)">
		<stop  offset="0" style="stop-color:#000000;stop-opacity:0.3178"/>
		<stop  offset="1" style="stop-color:#000000;stop-opacity:0.2403"/>
	</linearGradient>
	<path id="rect6998" class="st5" d="M-300.5,1256.4v-89.5c0-1.5-1.3-2.8-3-2.8h-97c-1.7,0-3,1.2-3,2.8v89.5c0,1.5,1.3,2.8,3,2.8h97
		C-301.8,1259.1-300.5,1257.9-300.5,1256.4z"/>
	<g id="g8367" class="st6">
		<rect id="rect15710" x="-403" y="1183" class="st7" width="102" height="0.9"/>
		<rect id="rect15712" x="-403" y="1202.4" class="st7" width="102" height="0.9"/>
		<rect id="rect16848" x="-403" y="1221.8" class="st7" width="102" height="0.9"/>
		<rect id="rect7153" x="-403" y="1241.1" class="st7" width="102" height="0.9"/>
	</g>
</g>
<g>
	<path class="st8" d="M-336,273.3h-55.6c-0.5,0-1,0.2-1.3,0.6c-0.3,0.4-0.5,0.9-0.5,1.4c1.4,19,8.4,35.8,18.8,44.9
		c0.3,0.3,0.8,0.5,1.2,0.5h32.3c0.5,0,0.9-0.1,1.2-0.5c10.4-9.1,17.4-25.9,18.8-44.9c0-0.5-0.1-1-0.5-1.4c-0.3-0.4-0.8-0.6-1.3-0.6
		h-8.1"/>
	<g>
		<path class="st9" d="M-367.1,327.2h33.1c1.8,0,3.3-1.5,3.3-3.3c0-1.8-1.5-3.3-3.3-3.3h-46.8c-1.8,0-3.3,1.5-3.3,3.3
			c0,1.8,1.5,3.3,3.3,3.3h9"/>
		<path class="st9" d="M-321.8,280.9c-0.3,2.3-0.7,4.5-1.2,6.7c5,0.5,9,4.7,9,9.8c0,5.4-4.4,9.9-9.9,9.9c-2,0-3.8-0.6-5.3-1.5
			c-1,2.1-2.2,4.1-3.4,5.9c2.5,1.6,5.5,2.5,8.7,2.5c9.2,0,16.7-7.5,16.7-16.7C-307.2,289-313.6,282-321.8,280.9z"/>
	</g>
	<path class="st10" d="M-369,319.1c-10.2-9-17.7-21.3-19.6-44.3c0-0.1,0-0.2,0-0.2h-1.8c-0.5,0-0.9,0.2-1.3,0.6
		c-0.3,0.3-0.5,0.8-0.5,1.3c1.3,18,7.9,33.8,17.7,42.4c0.3,0.3,0.7,0.4,1.2,0.4h4.5C-368.9,319.2-368.9,319.2-369,319.1z"/>
	<g>
		<path class="st11" d="M-320.3,279.8c0.2-1.4,0.3-2.9,0.4-4.4c0.1-0.9-0.2-1.8-0.8-2.4c-0.6-0.7-1.5-1-2.4-1h-8.1
			c-0.8,0-1.4,0.6-1.4,1.4s0.6,1.4,1.4,1.4h8.1c0.1,0,0.2,0,0.3,0.1c0.1,0.1,0.1,0.2,0.1,0.3c-0.1,1.9-0.3,3.7-0.6,5.5c0,0,0,0,0,0
			c-0.3,2.2-0.7,4.4-1.2,6.6c0,0,0,0,0,0c-1.4,6.4-3.4,12.4-6.1,17.6c0,0,0,0.1,0,0.1c-1,2-2.1,4-3.3,5.7c0,0,0,0.1-0.1,0.1
			c-2.1,3.1-4.5,5.9-7,8.2c-0.1,0.1-0.2,0.1-0.3,0.1h-32.3c-0.1,0-0.2,0-0.3-0.1c-10.1-8.9-16.9-25.3-18.3-44c0-0.1,0-0.2,0.1-0.3
			c0.1-0.1,0.2-0.1,0.3-0.1h55.6c0.8,0,1.4-0.6,1.4-1.4s-0.6-1.4-1.4-1.4h-55.6c-0.9,0-1.7,0.4-2.4,1c-0.6,0.7-0.9,1.5-0.8,2.4
			c1.3,18.1,7.7,34.2,17.1,43.9h-3c-2.6,0-4.7,2.1-4.7,4.7c0,2.6,2.1,4.7,4.7,4.7h9c0.8,0,1.4-0.6,1.4-1.4c0-0.8-0.6-1.4-1.4-1.4h-9
			c-1,0-1.9-0.8-1.9-1.9c0-1,0.8-1.9,1.9-1.9h7.2h32.3h7.2c1,0,1.9,0.8,1.9,1.9c0,1-0.8,1.9-1.9,1.9h-33.2c-0.8,0-1.4,0.6-1.4,1.4
			c0,0.8,0.6,1.4,1.4,1.4h33.1c2.6,0,4.7-2.1,4.7-4.7c0-2.6-2.1-4.7-4.7-4.7h-3c1.7-1.7,3.3-3.6,4.7-5.7c2.6,1.3,5.4,2,8.3,2
			c10,0,18.1-8.1,18.1-18.1C-305.8,288.9-311.9,281.5-320.3,279.8z M-321.9,289.2c3.7,0.9,6.4,4.3,6.4,8.2c0,4.7-3.8,8.5-8.5,8.5
			c-1.2,0-2.4-0.2-3.5-0.7C-325,300.3-323.2,295-321.9,289.2z M-323.9,312.7c-2.3,0-4.7-0.6-6.8-1.6c0,0,0-0.1,0-0.1
			c0-0.1,0.1-0.2,0.2-0.3c0.2-0.3,0.4-0.6,0.6-1c0,0,0,0,0,0c0.4-0.7,0.8-1.3,1.2-2c1.5,0.7,3.1,1,4.7,1c6.2,0,11.3-5.1,11.3-11.3
			c0-2.8-1-5.5-3-7.6c-1.5-1.7-3.5-2.8-5.7-3.4c0,0,0,0,0,0c0.2-1.3,0.5-2.6,0.7-3.9c6.9,1.5,12,7.7,12,14.9
			C-308.6,305.9-315.5,312.7-323.9,312.7z"/>
		<path class="st12" d="M-357.8,256.1c-2,1.8-3,3.9-3,6.1c0,3.6,2.9,6.1,3,6.2c0.2,0.2,0.6,0.3,0.9,0.3c0.4,0,0.8-0.1,1-0.5
			c0.5-0.6,0.5-1.5-0.1-2c0,0-2.1-1.8-2.1-4.2c0-1.4,0.7-2.7,2.1-4c2-1.9,3-3.9,3-6.1c0-3.6-2.9-6.1-3-6.3c-0.6-0.5-1.5-0.5-2,0.1
			s-0.5,1.5,0.1,2c0,0,2,1.8,2.1,4.2C-355.7,253.5-356.4,254.9-357.8,256.1z"/>
		<path class="st12" d="M-348.4,259.4c-1.5,1.3-2.2,2.8-2.2,4.5c0,2.6,2,4.4,2.2,4.6c0.2,0.2,0.6,0.3,0.9,0.3c0.4,0,0.8-0.1,1-0.5
			c0.5-0.6,0.5-1.5-0.1-2c0,0-1.2-1.2-1.3-2.5c0-0.8,0.4-1.6,1.3-2.3c1.5-1.3,2.2-2.8,2.2-4.5c0-2.6-2-4.4-2.2-4.6
			c-0.6-0.5-1.5-0.5-2,0.1c-0.5,0.6-0.5,1.5,0.1,2c0,0,1.2,1.2,1.3,2.5C-347.1,257.9-347.5,258.7-348.4,259.4z"/>
		<path class="st12" d="M-368.8,259.4c-1.5,1.3-2.2,2.8-2.2,4.5c0,2.6,2,4.4,2.2,4.6c0.2,0.2,0.6,0.3,0.9,0.3c0.4,0,0.8-0.1,1-0.5
			c0.5-0.6,0.5-1.5-0.1-2c0,0-1.2-1.2-1.3-2.5c0-0.8,0.4-1.6,1.3-2.3c1.5-1.3,2.2-2.8,2.2-4.5c0-2.6-2-4.4-2.2-4.6
			c-0.6-0.5-1.5-0.5-2,0.1c-0.5,0.6-0.5,1.5,0.1,2c0,0,1.2,1.2,1.3,2.5C-367.5,257.9-367.9,258.7-368.8,259.4z"/>
	</g>
</g>
</svg>
