<?xml version="1.0" encoding="utf-8"?>
<!-- Generator: Adobe Illustrator 19.0.0, SVG Export Plug-In . SVG Version: 6.00 Build 0)  -->
<svg version="1.1"
	 id="svg7564" xmlns:rdf="http://www.w3.org/1999/02/22-rdf-syntax-ns#" xmlns:cc="http://creativecommons.org/ns#" xmlns:dc="http://purl.org/dc/elements/1.1/" sodipodi:docname="New document 4" inkscape:version="0.48.1 " xmlns:svg="http://www.w3.org/2000/svg" xmlns:sodipodi="http://sodipodi.sourceforge.net/DTD/sodipodi-0.dtd" xmlns:inkscape="http://www.inkscape.org/namespaces/inkscape"
	 xmlns="http://www.w3.org/2000/svg" xmlns:xlink="http://www.w3.org/1999/xlink" x="0px" y="0px" viewBox="-368 270.6 32 32"
	 style="enable-background:new -368 270.6 32 32;" xml:space="preserve">
<style type="text/css">
	.st0{opacity:0.4;fill:url(#rect2801_1_);enable-background:new    ;}
	.st1{opacity:0.4;fill:url(#rect3696_1_);enable-background:new    ;}
	.st2{opacity:0.4;fill:url(#rect3700_1_);enable-background:new    ;}
	.st3{fill:url(#rect6994_1_);}
	.st4{fill:none;stroke:url(#rect7002_1_);}
	.st5{fill:none;stroke:url(#rect6998_1_);stroke-width:1;}
	.st6{opacity:0.6;}
	.st7{opacity:0.5;fill:#B9B9B9;enable-background:new    ;}
	.st8{fill:#66C4B6;}
	.st9{fill:#EFA143;}
	.st10{fill:#4E9386;}
	.st11{fill:#211D1F;}
	.st12{fill:#16090D;}
</style>
<sodipodi:namedview  id="base" inkscape:window-maximized="1" inkscape:pageopacity="0.0" inkscape:window-width="1360" inkscape:current-layer="layer1" inkscape:document-units="px" inkscape:window-x="-8" inkscape:pageshadow="2" inkscape:window-height="706" inkscape:window-y="-8" showgrid="false" inkscape:cy="20.874172" inkscape:cx="69.25" inkscape:zoom="1" borderopacity="1.0" bordercolor="#666666" pagecolor="#ffffff">
	<inkscape:grid  type="xygrid" id="grid7756" snapvisiblegridlinesonly="true" enabled="true" visible="true" empspacing="12">
		</inkscape:grid>
</sodipodi:namedview>
<g id="layer1" transform="translate(0,-924.36218)" inkscape:label="Layer 1" inkscape:groupmode="layer">
	<g id="g7796">
		
			<radialGradient id="rect2801_1_" cx="-766.1207" cy="1355.8967" r="0.8856" gradientTransform="matrix(5.0777 0 0 -1.5188 3550.1682 3283.3308)" gradientUnits="userSpaceOnUse">
			<stop  offset="0" style="stop-color:#181818"/>
			<stop  offset="1" style="stop-color:#181818;stop-opacity:0"/>
		</radialGradient>
		<rect id="rect2801" x="-339.9" y="1222.6" class="st0" width="4.5" height="2.7"/>
		
			<radialGradient id="rect3696_1_" cx="-892.5485" cy="1529.8278" r="0.8856" gradientTransform="matrix(-5.0777 0 0 1.5188 -4896.1265 -1099.5588)" gradientUnits="userSpaceOnUse">
			<stop  offset="0" style="stop-color:#181818"/>
			<stop  offset="1" style="stop-color:#181818;stop-opacity:0"/>
		</radialGradient>
		<rect id="rect3696" x="-368.6" y="1222.6" class="st1" width="4.5" height="2.7"/>
		
			<linearGradient id="rect3700_1_" gradientUnits="userSpaceOnUse" x1="-671.2093" y1="1315.4869" x2="-671.2093" y2="1317.3782" gradientTransform="matrix(3.0714 0 0 -1.4286 1709.5717 3104.5938)">
			<stop  offset="0" style="stop-color:#181818;stop-opacity:0"/>
			<stop  offset="0.5" style="stop-color:#181818"/>
			<stop  offset="1" style="stop-color:#181818;stop-opacity:0"/>
		</linearGradient>
		<rect id="rect3700" x="-364.1" y="1222.6" class="st2" width="24.1" height="2.7"/>
	</g>
	
		<linearGradient id="rect6994_1_" gradientUnits="userSpaceOnUse" x1="-727.2032" y1="1594.0945" x2="-717.4083" y2="1594.0945" gradientTransform="matrix(0 2.8022 3.0267 0 -5176.856 3234.5598)">
		<stop  offset="0" style="stop-color:#F4F4F4"/>
		<stop  offset="1" style="stop-color:#DBDBDB"/>
	</linearGradient>
	<path id="rect6994" class="st3" d="M-337.7,1197.5v26.1c0,0.4-0.3,0.7-0.7,0.7h-27.2c-0.4,0-0.7-0.3-0.7-0.7v-26.1
		c0-0.4,0.3-0.7,0.7-0.7h27.2C-338,1196.8-337.7,1197.1-337.7,1197.5z"/>
	
		<linearGradient id="rect7002_1_" gradientUnits="userSpaceOnUse" x1="-683.3173" y1="1708.9166" x2="-667.278" y2="1708.9166" gradientTransform="matrix(0 1.7414 2.1957 0 -4104.1865 2386.4658)">
		<stop  offset="0" style="stop-color:#FFFFFF"/>
		<stop  offset="1.785714e-002" style="stop-color:#FFFFFF;stop-opacity:0.2353"/>
		<stop  offset="0.9825" style="stop-color:#FFFFFF;stop-opacity:0.1569"/>
		<stop  offset="1" style="stop-color:#FFFFFF;stop-opacity:0.3922"/>
	</linearGradient>
	<path id="rect7002" class="st4" d="M-337.8,1197.5v26.1c0,0.3-0.3,0.5-0.6,0.5h-27.2c-0.3,0-0.6-0.2-0.6-0.5v-26.1
		c0-0.3,0.3-0.5,0.6-0.5h27.2C-338.1,1196.9-337.8,1197.2-337.8,1197.5z"/>
	
		<linearGradient id="rect6998_1_" gradientUnits="userSpaceOnUse" x1="-930.5845" y1="1705.2554" x2="-913.9774" y2="1705.2554" gradientTransform="matrix(0 -1.7759 2.2391 0 -4170.2896 -427.3275)">
		<stop  offset="0" style="stop-color:#000000;stop-opacity:0.3178"/>
		<stop  offset="1" style="stop-color:#000000;stop-opacity:0.2403"/>
	</linearGradient>
	<path id="rect6998" class="st5" d="M-337.5,1223.6v-26.1c0-0.4-0.4-0.8-0.8-0.8h-27.2c-0.5,0-0.8,0.4-0.8,0.8v26.1
		c0,0.4,0.4,0.8,0.8,0.8h27.2C-337.9,1224.4-337.5,1224-337.5,1223.6z"/>
	<g id="g8367" class="st6">
		<rect id="rect15710" x="-366.3" y="1202.2" class="st7" width="28.6" height="0.3"/>
		<rect id="rect15712" x="-366.3" y="1207.8" class="st7" width="28.6" height="0.3"/>
		<rect id="rect16848" x="-366.3" y="1213.5" class="st7" width="28.6" height="0.3"/>
		<rect id="rect7153" x="-366.3" y="1219.1" class="st7" width="28.6" height="0.3"/>
	</g>
</g>
<g>
	<path class="st8" d="M-347.5,282.1h-15.6c-0.1,0-0.3,0.1-0.4,0.2c-0.1,0.1-0.1,0.3-0.1,0.4c0.4,5.6,2.4,10.5,5.3,13.1
		c0.1,0.1,0.2,0.1,0.3,0.1h9.1c0.1,0,0.2,0,0.3-0.1c2.9-2.7,4.9-7.6,5.3-13.1c0-0.2,0-0.3-0.1-0.4c-0.1-0.1-0.2-0.2-0.4-0.2h-2.3"/>
	<g>
		<path class="st9" d="M-356.2,297.8h9.3c0.5,0,0.9-0.4,0.9-1c0-0.5-0.4-1-0.9-1h-13.1c-0.5,0-0.9,0.4-0.9,1c0,0.5,0.4,1,0.9,1h2.5"
			/>
		<path class="st9" d="M-343.5,284.3c-0.1,0.7-0.2,1.3-0.3,2c1.4,0.1,2.5,1.4,2.5,2.9c0,1.6-1.2,2.9-2.8,2.9c-0.5,0-1.1-0.2-1.5-0.4
			c-0.3,0.6-0.6,1.2-1,1.7c0.7,0.5,1.6,0.7,2.5,0.7c2.6,0,4.7-2.2,4.7-4.9C-339.4,286.7-341.2,284.6-343.5,284.3z"/>
	</g>
	<path class="st10" d="M-356.8,295.4c-2.9-2.6-5-6.2-5.5-12.9c0,0,0-0.1,0-0.1h-0.5c-0.1,0-0.3,0.1-0.4,0.2
		c-0.1,0.1-0.1,0.2-0.1,0.4c0.4,5.2,2.2,9.9,5,12.4c0.1,0.1,0.2,0.1,0.3,0.1L-356.8,295.4C-356.7,295.5-356.7,295.5-356.8,295.4z"/>
	<g>
		<path class="st11" d="M-343.1,284c0-0.4,0.1-0.8,0.1-1.3c0-0.3-0.1-0.5-0.2-0.7c-0.2-0.2-0.4-0.3-0.7-0.3h-2.3
			c-0.2,0-0.4,0.2-0.4,0.4c0,0.2,0.2,0.4,0.4,0.4h2.3c0,0,0.1,0,0.1,0c0,0,0,0.1,0,0.1c0,0.5-0.1,1.1-0.2,1.6c0,0,0,0,0,0
			c-0.1,0.7-0.2,1.3-0.3,1.9c0,0,0,0,0,0c-0.4,1.9-1,3.6-1.7,5.1c0,0,0,0,0,0c-0.3,0.6-0.6,1.2-0.9,1.7c0,0,0,0,0,0
			c-0.6,0.9-1.3,1.7-2,2.4c0,0,0,0-0.1,0h-9.1c0,0-0.1,0-0.1,0c-2.8-2.6-4.8-7.4-5.1-12.8c0,0,0-0.1,0-0.1c0,0,0.1,0,0.1,0h15.6
			c0.2,0,0.4-0.2,0.4-0.4c0-0.2-0.2-0.4-0.4-0.4h-15.6c-0.3,0-0.5,0.1-0.7,0.3c-0.2,0.2-0.3,0.4-0.2,0.7c0.4,5.3,2.2,10,4.8,12.8
			h-0.8c-0.7,0-1.3,0.6-1.3,1.4s0.6,1.4,1.3,1.4h2.5c0.2,0,0.4-0.2,0.4-0.4c0-0.2-0.2-0.4-0.4-0.4h-2.5c-0.3,0-0.5-0.2-0.5-0.5
			c0-0.3,0.2-0.5,0.5-0.5h2h9.1h2c0.3,0,0.5,0.2,0.5,0.5c0,0.3-0.2,0.5-0.5,0.5h-9.3c-0.2,0-0.4,0.2-0.4,0.4c0,0.2,0.2,0.4,0.4,0.4
			h9.3c0.7,0,1.3-0.6,1.3-1.4s-0.6-1.4-1.3-1.4h-0.8c0.5-0.5,0.9-1.1,1.3-1.7c0.7,0.4,1.5,0.6,2.3,0.6c2.8,0,5.1-2.4,5.1-5.3
			C-339,286.6-340.8,284.5-343.1,284z M-343.5,286.7c1,0.3,1.8,1.3,1.8,2.4c0,1.4-1.1,2.5-2.4,2.5c-0.3,0-0.7-0.1-1-0.2
			C-344.4,290-343.9,288.4-343.5,286.7z M-344.1,293.6c-0.7,0-1.3-0.2-1.9-0.5c0,0,0,0,0,0c0,0,0-0.1,0-0.1c0.1-0.1,0.1-0.2,0.2-0.3
			c0,0,0,0,0,0c0.1-0.2,0.2-0.4,0.3-0.6c0.4,0.2,0.9,0.3,1.3,0.3c1.7,0,3.2-1.5,3.2-3.3c0-0.8-0.3-1.6-0.8-2.2c-0.4-0.5-1-0.8-1.6-1
			c0,0,0,0,0,0c0.1-0.4,0.1-0.8,0.2-1.1c1.9,0.4,3.4,2.2,3.4,4.3C-339.8,291.6-341.8,293.6-344.1,293.6z"/>
		<path class="st12" d="M-353.6,277.1c-0.6,0.5-0.9,1.1-0.8,1.8c0,1.1,0.8,1.8,0.9,1.8c0.1,0.1,0.2,0.1,0.3,0.1c0.1,0,0.2,0,0.3-0.1
			c0.1-0.2,0.1-0.4,0-0.6c0,0-0.6-0.5-0.6-1.2c0-0.4,0.2-0.8,0.6-1.2c0.6-0.5,0.9-1.1,0.8-1.8c0-1.1-0.8-1.8-0.9-1.8
			c-0.2-0.2-0.4-0.1-0.6,0s-0.1,0.4,0,0.6c0,0,0.6,0.5,0.6,1.2C-353,276.3-353.2,276.7-353.6,277.1z"/>
		<path class="st12" d="M-351,278c-0.4,0.4-0.6,0.8-0.6,1.3c0,0.8,0.6,1.3,0.6,1.3c0.1,0.1,0.2,0.1,0.3,0.1c0.1,0,0.2,0,0.3-0.1
			c0.1-0.2,0.1-0.4,0-0.6c0,0-0.3-0.3-0.4-0.7c0-0.2,0.1-0.5,0.4-0.7c0.4-0.4,0.6-0.8,0.6-1.3c0-0.8-0.6-1.3-0.6-1.3
			c-0.2-0.2-0.4-0.1-0.5,0c-0.1,0.2-0.1,0.4,0,0.6c0,0,0.3,0.3,0.4,0.7C-350.6,277.6-350.7,277.8-351,278z"/>
		<path class="st12" d="M-356.7,278c-0.4,0.4-0.6,0.8-0.6,1.3c0,0.8,0.6,1.3,0.6,1.3c0.1,0.1,0.2,0.1,0.3,0.1c0.1,0,0.2,0,0.3-0.1
			c0.1-0.2,0.1-0.4,0-0.6c0,0-0.3-0.3-0.4-0.7c0-0.2,0.1-0.5,0.4-0.7c0.4-0.4,0.6-0.8,0.6-1.3c0-0.8-0.6-1.3-0.6-1.3
			c-0.2-0.2-0.4-0.1-0.5,0c-0.1,0.2-0.1,0.4,0,0.6c0,0,0.3,0.3,0.4,0.7C-356.3,277.6-356.5,277.8-356.7,278z"/>
	</g>
</g>
</svg>
